<?xml version="1.0" encoding="UTF-8"?>
<svg version="1.1" xmlns="http://www.w3.org/2000/svg" width="482" height="482">
<path d="M0 0 C2.75317264 0.00315453 5.50526019 -0.02038579 8.25830078 -0.0456543 C20.59652371 -0.08974665 32.38926807 1.09768352 44.52001953 3.31567383 C45.60557129 3.50911377 46.69112305 3.70255371 47.80957031 3.90185547 C66.79675677 7.5032239 84.52057609 14.17548776 101.52001953 23.31567383 C102.45716797 23.80680664 103.39431641 24.29793945 104.35986328 24.80395508 C113.46356202 29.64968281 122.51399424 34.79132351 130.52001953 41.31567383 C134.49799956 44.24133054 134.49799956 44.24133054 138.49853516 47.13598633 C139.8752322 48.14841446 141.20257546 49.22725911 142.52001953 50.31567383 C142.52001953 50.97567383 142.52001953 51.63567383 142.52001953 52.31567383 C143.37237183 52.68233154 143.37237183 52.68233154 144.24194336 53.05639648 C148.92275291 55.64385931 152.46435371 59.92466511 156.20751953 63.69067383 C157.11074951 64.59736816 158.01397949 65.5040625 158.94458008 66.43823242 C165.12118222 72.71620051 170.6059773 78.9940807 175.52001953 86.31567383 C176.76977677 88.06584721 178.01976951 89.81585244 179.27001953 91.56567383 C182.15978929 95.73309643 184.89659478 99.97624178 187.52001953 104.31567383 C187.98537109 105.07106445 188.45072266 105.82645508 188.93017578 106.60473633 C203.24510703 131.01398027 212.38465378 158.22957896 215.52001953 186.31567383 C215.61500732 187.14236572 215.70999512 187.96905762 215.80786133 188.82080078 C219.64840847 225.83684756 214.68304724 263.23785212 199.52001953 297.31567383 C199.0970459 298.29528076 199.0970459 298.29528076 198.66552734 299.29467773 C194.69943056 308.45468803 189.928249 316.91840303 184.52001953 325.31567383 C183.94380859 326.25024414 183.36759766 327.18481445 182.77392578 328.14770508 C178.45445048 335.12071486 173.86500435 342.07804389 168.52001953 348.31567383 C167.86001953 348.31567383 167.20001953 348.31567383 166.52001953 348.31567383 C166.52001953 348.97567383 166.52001953 349.63567383 166.52001953 350.31567383 C165.86001953 350.31567383 165.20001953 350.31567383 164.52001953 350.31567383 C164.28541016 350.86610352 164.05080078 351.4165332 163.80908203 351.98364258 C159.41175898 359.93879974 151.46334915 366.59328494 144.52001953 372.31567383 C143.02744074 373.56248663 141.53488092 374.80932224 140.04272461 376.05664062 C138.98854411 376.93547615 137.93239622 377.81195726 136.87426758 378.68603516 C134.17304808 380.91844443 131.54122522 383.19934722 128.95751953 385.56567383 C125.41119048 388.63743329 121.39516416 390.66445139 117.25048828 392.82348633 C114.82894381 394.14684825 112.68491848 395.57154296 110.45751953 397.19067383 C103.42400539 401.99711819 95.34311744 405.03518143 87.52001953 408.31567383 C86.8190918 408.61038574 86.11816406 408.90509766 85.39599609 409.20874023 C51.21750796 423.47863 15.2289905 427.30497438 -21.47998047 424.31567383 C-23.20667969 424.18418945 -23.20667969 424.18418945 -24.96826172 424.05004883 C-43.25356219 422.14489861 -61.54888136 416.35973538 -78.47998047 409.31567383 C-79.1307959 409.05318848 -79.78161133 408.79070312 -80.45214844 408.52026367 C-95.25804279 402.53718212 -108.32512001 394.31733078 -121.47998047 385.31567383 C-122.45837891 384.66083008 -123.43677734 384.00598633 -124.44482422 383.33129883 C-125.82347656 382.39543945 -125.82347656 382.39543945 -127.22998047 381.44067383 C-128.04982422 380.88637695 -128.86966797 380.33208008 -129.71435547 379.76098633 C-130.29701172 379.2840332 -130.87966797 378.80708008 -131.47998047 378.31567383 C-131.47998047 377.65567383 -131.47998047 376.99567383 -131.47998047 376.31567383 C-132.06046143 376.05520264 -132.64094238 375.79473145 -133.23901367 375.52636719 C-137.26808831 373.34963975 -140.35756768 370.00567365 -143.66748047 366.87817383 C-144.40417969 366.1969043 -145.14087891 365.51563477 -145.89990234 364.8137207 C-146.60050781 364.1556543 -147.30111328 363.49758789 -148.02294922 362.81958008 C-148.98237427 361.91961304 -148.98237427 361.91961304 -149.96118164 361.00146484 C-151.47998047 359.31567383 -151.47998047 359.31567383 -152.47998047 356.31567383 C-153.46998047 355.98567383 -154.45998047 355.65567383 -155.47998047 355.31567383 C-157.08544922 353.75708008 -157.08544922 353.75708008 -158.66748047 351.87817383 C-159.19728516 351.26071289 -159.72708984 350.64325195 -160.27294922 350.00708008 C-161.47998047 348.31567383 -161.47998047 348.31567383 -161.47998047 346.31567383 C-162.13998047 346.31567383 -162.79998047 346.31567383 -163.47998047 346.31567383 C-166.07298733 343.18491271 -168.21487165 339.68816918 -170.47998047 336.31567383 C-171.23794922 335.23801758 -171.99591797 334.16036133 -172.77685547 333.05004883 C-189.32123023 309.32408599 -200.44069852 282.55434967 -206.47998047 254.31567383 C-206.65787109 253.50565918 -206.83576172 252.69564453 -207.01904297 251.86108398 C-213.30920049 221.57722045 -211.27037422 188.07218709 -203.47998047 158.31567383 C-203.26680176 157.48165039 -203.05362305 156.64762695 -202.83398438 155.78833008 C-201.62814612 151.20271961 -200.16184963 146.74939077 -198.47998047 142.31567383 C-198.18865234 141.53724121 -197.89732422 140.75880859 -197.59716797 139.95678711 C-193.49076815 129.08776441 -188.92054002 118.58472997 -183.47998047 108.31567383 C-182.81998047 108.31567383 -182.15998047 108.31567383 -181.47998047 108.31567383 C-181.24279297 107.47391602 -181.00560547 106.6321582 -180.76123047 105.76489258 C-179.29039582 101.80529807 -177.31450492 98.62250197 -174.97998047 95.12817383 C-174.57650391 94.51264648 -174.17302734 93.89711914 -173.75732422 93.26293945 C-172.01201639 90.60465707 -170.24393594 87.96160704 -168.47998047 85.31567383 C-167.81998047 85.31567383 -167.15998047 85.31567383 -166.47998047 85.31567383 C-166.21185547 84.57317383 -165.94373047 83.83067383 -165.66748047 83.06567383 C-164.52721296 80.42505434 -163.38617741 78.46014539 -161.47998047 76.31567383 C-160.81998047 76.31567383 -160.15998047 76.31567383 -159.47998047 76.31567383 C-159.22216797 75.74333008 -158.96435547 75.17098633 -158.69873047 74.58129883 C-157.36632105 72.10438388 -155.82941929 70.18155722 -153.97998047 68.06567383 C-153.06732422 67.00606445 -153.06732422 67.00606445 -152.13623047 65.92504883 C-150.47998047 64.31567383 -150.47998047 64.31567383 -148.47998047 64.31567383 C-148.47998047 63.65567383 -148.47998047 62.99567383 -148.47998047 62.31567383 C-147.08154297 60.90551758 -147.08154297 60.90551758 -145.10498047 59.25317383 C-141.91207503 56.54760659 -138.80384952 53.78076967 -135.72998047 50.94067383 C-127.34564714 43.41887403 -118.33674022 37.10272501 -108.85498047 31.06567383 C-108.07968994 30.570271 -107.30439941 30.07486816 -106.50561523 29.56445312 C-89.20749487 18.71412913 -69.04041196 9.96036988 -48.98388672 6.01098633 C-45.88169183 5.39538913 -42.94042332 4.6077964 -39.91748047 3.69067383 C-26.89563769 0.11811437 -13.40640307 -0.03195946 0 0 Z M-73.47998047 71.31567383 C-74.61951172 71.96793945 -75.75904297 72.62020508 -76.93310547 73.29223633 C-78.87213828 74.43507411 -80.81092338 75.57833226 -82.74951172 76.72192383 C-84.95244011 78.00775327 -87.17189806 79.23263817 -89.41748047 80.44067383 C-92.6163034 82.39913685 -94.91199706 84.60094851 -97.47998047 87.31567383 C-98.46998047 87.81067383 -98.46998047 87.81067383 -99.47998047 88.31567383 C-99.47998047 88.97567383 -99.47998047 89.63567383 -99.47998047 90.31567383 C-100.04201172 90.56317383 -100.60404297 90.81067383 -101.18310547 91.06567383 C-103.87090616 92.5284225 -105.94403529 94.28372256 -108.22998047 96.31567383 C-109.02919922 97.01692383 -109.82841797 97.71817383 -110.65185547 98.44067383 C-112.71268051 100.11788811 -112.71268051 100.11788811 -112.47998047 102.31567383 C-113.13998047 102.31567383 -113.79998047 102.31567383 -114.47998047 102.31567383 C-118.11631586 105.7956589 -118.11631586 105.7956589 -119.47998047 110.31567383 C-120.46998047 110.64567383 -121.45998047 110.97567383 -122.47998047 111.31567383 C-123.8678205 112.88145364 -123.8678205 112.88145364 -125.11669922 114.85864258 C-125.85315674 115.96405396 -125.85315674 115.96405396 -126.60449219 117.09179688 C-127.12027832 117.88755127 -127.63606445 118.68330566 -128.16748047 119.50317383 C-128.96822998 120.72677612 -128.96822998 120.72677612 -129.78515625 121.97509766 C-136.64335447 132.54135152 -142.73954679 143.07113403 -147.17529297 154.88598633 C-147.92671429 156.8612795 -148.71427621 158.82522611 -149.59716797 160.74536133 C-161.54882137 186.77958308 -159.9972607 222.29805587 -153.47998047 249.31567383 C-153.04685547 251.17772461 -153.04685547 251.17772461 -152.60498047 253.07739258 C-148.42626073 269.13934657 -141.70011622 285.4854702 -132.47998047 299.31567383 C-131.81998047 299.31567383 -131.15998047 299.31567383 -130.47998047 299.31567383 C-130.36750977 299.89978027 -130.25503906 300.48388672 -130.13916016 301.08569336 C-129.41795305 303.5255103 -128.46973052 304.97860741 -126.93310547 306.99536133 C-126.41748047 307.67727539 -125.90185547 308.35918945 -125.37060547 309.06176758 C-124.82919922 309.76430664 -124.28779297 310.4668457 -123.72998047 311.19067383 C-123.20404297 311.88547852 -122.67810547 312.5802832 -122.13623047 313.29614258 C-116.75355562 320.37089591 -111.33391045 326.62015455 -104.47998047 332.31567383 C-103.72716797 332.94473633 -102.97435547 333.57379883 -102.19873047 334.22192383 C-90.68098234 343.64553593 -78.36478168 352.45593209 -64.66748047 358.37817383 C-63.87051758 358.72468994 -63.07355469 359.07120605 -62.25244141 359.42822266 C-59.99891612 360.4003361 -57.7403873 361.35969784 -55.47998047 362.31567383 C-54.54283203 362.72043945 -53.60568359 363.12520508 -52.64013672 363.54223633 C-38.88424503 369.02675716 -22.65713318 372.4624753 -7.85498047 372.48364258 C-7.03102783 372.48697098 -6.2070752 372.49029938 -5.3581543 372.49372864 C-3.61670486 372.49877545 -1.87524581 372.50113766 -0.13378906 372.50097656 C2.48405692 372.50314405 5.10146776 372.52127091 7.71923828 372.5402832 C21.34327819 372.58812264 34.07470361 371.40932538 47.20751953 367.50317383 C48.11614746 367.23674072 49.02477539 366.97030762 49.9609375 366.69580078 C56.45435246 364.74334552 62.46504538 362.37100901 68.52001953 359.31567383 C71.02381649 358.12161268 73.53327732 356.93991819 76.04296875 355.75830078 C79.87336787 353.95400521 83.69667946 352.13486768 87.52001953 350.31567383 C87.52001953 349.65567383 87.52001953 348.99567383 87.52001953 348.31567383 C88.24705078 348.05141602 88.97408203 347.7871582 89.72314453 347.51489258 C94.44984117 345.48822237 98.39127458 342.34791233 102.52001953 339.31567383 C103.34759766 338.70852539 104.17517578 338.10137695 105.02783203 337.47583008 C109.14762678 334.36898816 112.34991841 331.40612689 115.52001953 327.31567383 C116.81505687 326.15014023 118.12963149 325.0061382 119.45751953 323.87817383 C122.91213333 320.92076612 125.80359319 317.96587172 128.52001953 314.31567383 C128.52001953 313.65567383 128.52001953 312.99567383 128.52001953 312.31567383 C129.18001953 312.31567383 129.84001953 312.31567383 130.52001953 312.31567383 C132.10539156 310.21224995 132.10539156 310.21224995 133.70751953 307.50317383 C136.09315238 303.63084224 138.51680519 299.80037481 141.02001953 296.00317383 C147.75179772 285.37722799 152.57935355 274.2321398 156.52001953 262.31567383 C156.76155762 261.63690186 157.0030957 260.95812988 157.25195312 260.25878906 C159.23985873 254.57968428 160.55886916 248.91683986 161.64501953 243.00317383 C161.9026709 241.61787476 161.9026709 241.61787476 162.16552734 240.20458984 C163.3631777 233.5855368 164.2916822 227.04666122 164.52001953 220.31567383 C164.55998047 219.44168945 164.59994141 218.56770508 164.64111328 217.66723633 C165.29581332 190.16983462 158.79671136 164.18837709 147.52001953 139.31567383 C146.86001953 139.31567383 146.20001953 139.31567383 145.52001953 139.31567383 C145.41689453 138.77168945 145.31376953 138.22770508 145.20751953 137.66723633 C144.35331505 134.74546872 143.00784512 132.34443966 141.52001953 129.69067383 C140.71564453 128.24821289 140.71564453 128.24821289 139.89501953 126.77661133 C139.21439453 125.55844727 139.21439453 125.55844727 138.52001953 124.31567383 C138.19001953 123.65567383 137.86001953 122.99567383 137.52001953 122.31567383 C136.86001953 122.31567383 136.20001953 122.31567383 135.52001953 122.31567383 C135.15263672 121.2405957 135.15263672 121.2405957 134.77783203 120.14379883 C132.41805584 114.83796666 128.26938427 110.69695397 124.52001953 106.31567383 C123.83037109 105.50098633 123.14072266 104.68629883 122.43017578 103.84692383 C118.13135016 98.87560866 113.59086199 94.49001375 108.52001953 90.31567383 C107.36179687 89.34307617 107.36179687 89.34307617 106.18017578 88.35083008 C56.7929371 47.70193379 -17.52913925 38.83758309 -73.47998047 71.31567383 Z " fill="#BDD0ED" transform="translate(236.47998046875,31.684326171875)"/>
<path d="M0 0 C1.6875 1.5625 1.6875 1.5625 3 3 C5.09989652 4.17574711 5.09989652 4.17574711 7 5 C7 5.66 7 6.32 7 7 C7.73605469 7.11730469 8.47210938 7.23460937 9.23046875 7.35546875 C11.99772075 7.99946957 13.87947215 8.87581262 16.3125 10.3125 C20.4708463 12.71261934 24.69026197 14.88431042 29 17 C29 16.34 29 15.68 29 15 C30.98 15 32.96 15 35 15 C34.34 16.98 33.68 18.96 33 21 C33.99 21 34.98 21 36 21 C36 21.66 36 22.32 36 23 C37.32 23 38.64 23 40 23 C40 23.66 40 24.32 40 25 C42.31 25.66 44.62 26.32 47 27 C47 27.66 47 28.32 47 29 C47.99 29 48.98 29 50 29 C50 29.66 50 30.32 50 31 C50.99 31 51.98 31 53 31 C53 31.66 53 32.32 53 33 C53.598125 33.144375 54.19625 33.28875 54.8125 33.4375 C56.56150404 33.8872439 58.28677023 34.42892341 60 35 C60 35.66 60 36.32 60 37 C60.55558594 37.103125 61.11117187 37.20625 61.68359375 37.3125 C64.47821321 38.14193175 66.5953498 39.45198419 69.0625 41 C71.76080698 42.68796347 73.97148084 43.99049361 77 45 C77 45.66 77 46.32 77 47 C79.97 47.66 82.94 48.32 86 49 C86 49.66 86 50.32 86 51 C86.66 51 87.32 51 88 51 C88 51.66 88 52.32 88 53 C88.78375 53.144375 89.5675 53.28875 90.375 53.4375 C93 54 93 54 95 55 C95 55.66 95 56.32 95 57 C97.64 57.66 100.28 58.32 103 59 C103 59.66 103 60.32 103 61 C103.66 61.226875 104.32 61.45375 105 61.6875 C107.520913 62.79039944 109.57896364 63.95445706 111.875 65.4375 C114.37944261 67.05116321 116.51493248 68.20402985 119.3125 69.3125 C125.622566 71.87733052 132.23075697 76.11494928 135.80859375 81.94921875 C138.27979236 88.27710765 137.61779947 94.78272625 135 101 C134.01 101 133.02 101 132 101 C130.2611251 101.78358951 130.2611251 101.78358951 128.48046875 102.90625 C127.79404297 103.31681641 127.10761719 103.72738281 126.40039062 104.15039062 C125.30500977 104.81844727 125.30500977 104.81844727 124.1875 105.5 C122.66073679 106.41763326 121.13338306 107.33428466 119.60546875 108.25 C118.45377197 108.94222656 118.45377197 108.94222656 117.27880859 109.6484375 C115.13465909 110.92013363 112.97542059 112.15633149 110.80078125 113.375 C110.15794189 113.73529297 109.51510254 114.09558594 108.8527832 114.46679688 C107.09086617 115.44932855 105.32674133 116.42789799 103.5625 117.40625 C100.90846206 118.74697418 100.90846206 118.74697418 100 121 C99.10796875 121.29648437 98.2159375 121.59296875 97.296875 121.8984375 C93.82605963 123.05811752 91.279901 124.59111618 88.25 126.625 C83.20816327 130 83.20816327 130 81 130 C81 130.66 81 131.32 81 132 C79.68 131.67 78.36 131.34 77 131 C77 131.66 77 132.32 77 133 C70.375 137 70.375 137 67 137 C67 137.66 67 138.32 67 139 C66.34 139 65.68 139 65 139 C65 139.66 65 140.32 65 141 C63.35 141 61.7 141 60 141 C60 141.66 60 142.32 60 143 C53.375 147 53.375 147 50 147 C50 147.66 50 148.32 50 149 C49.01 149 48.02 149 47 149 C47 149.66 47 150.32 47 151 C45.948125 151.433125 44.89625 151.86625 43.8125 152.3125 C41.45270359 153.31565232 39.40094175 154.35943495 37.1875 155.6875 C35 157 35 157 33 157 C33 157.66 33 158.32 33 159 C29.535 159.99 29.535 159.99 26 161 C26 161.66 26 162.32 26 163 C25.49210937 163.24234375 24.98421875 163.4846875 24.4609375 163.734375 C21.04903306 165.39560188 17.79282109 167.05984911 14.6875 169.25 C12 171 12 171 9 171 C9 171.66 9 172.32 9 173 C7.02 173.99 5.04 174.98 3 176 C3.33 176.99 3.66 177.98 4 179 C3.67 179.66 3.34 180.32 3 181 C1.02 181 -0.96 181 -3 181 C-2.67 180.34 -2.34 179.68 -2 179 C-3.02673828 179.49113281 -3.02673828 179.49113281 -4.07421875 179.9921875 C-7.48912059 181.16848212 -10.21031284 181.19777146 -13.8125 181.125 C-14.97394531 181.10695313 -16.13539063 181.08890625 -17.33203125 181.0703125 C-18.21246094 181.04710937 -19.09289062 181.02390625 -20 181 C-20 180.34 -20 179.68 -20 179 C-20.99 179 -21.98 179 -23 179 C-26.87913759 172.61819299 -28.12256879 168.08224363 -28.13371277 160.52346802 C-28.13797775 159.21410278 -28.14224274 157.90473755 -28.14663696 156.55569458 C-28.14628748 155.1115112 -28.14582596 153.66732784 -28.14526367 152.22314453 C-28.14825701 150.69683754 -28.15165995 149.17053131 -28.15544128 147.64422607 C-28.16426746 143.50368428 -28.16661881 139.36316315 -28.16725707 135.22261286 C-28.16796833 132.63433652 -28.17010409 130.04606541 -28.17275429 127.45779037 C-28.18200296 118.42416806 -28.18608975 109.39056049 -28.18530273 100.35693359 C-28.18470199 91.94260625 -28.19525442 83.52834303 -28.2110464 75.11403191 C-28.22413084 67.88415448 -28.22948625 60.65429798 -28.22884732 53.42440879 C-28.22859261 49.10886561 -28.23142902 44.79337942 -28.24202538 40.47784805 C-28.25172162 36.41816693 -28.25177509 32.35859714 -28.24450874 28.29891205 C-28.24346482 26.81184349 -28.24581438 25.32476794 -28.2518692 23.83771133 C-28.25961896 21.80198814 -28.25373155 19.76622685 -28.24723816 17.73049927 C-28.24778293 16.59304827 -28.24832769 15.45559727 -28.24888897 14.28367805 C-27.78904848 8.21684382 -26.4206886 3.29789169 -22 -1 C-14.62511328 -4.60168886 -7.03257799 -3.79759211 0 0 Z " fill="#2768CD" transform="translate(204,155)"/>
<path d="M0 0 C1.6875 1.5625 1.6875 1.5625 3 3 C5.09989652 4.17574711 5.09989652 4.17574711 7 5 C6.67 5.66 6.34 6.32 6 7 C3.68628057 5.85657478 1.37400323 4.71038936 -0.9375 3.5625 C-1.59685547 3.23701172 -2.25621094 2.91152344 -2.93554688 2.57617188 C-7.88671875 0.11328125 -7.88671875 0.11328125 -9 -1 C-13.75074359 -1.14002192 -17.76968044 -0.63933292 -21.5 2.4375 C-25.19391055 6.22375831 -25.12045837 8.00677882 -25.08901978 13.19842529 C-25.08649621 13.84110202 -25.08397265 14.48377875 -25.08137262 15.14593053 C-25.07161542 17.30925553 -25.05458559 19.47246275 -25.03759766 21.63574219 C-25.02909402 23.18293028 -25.02102223 24.73012079 -25.01335144 26.27731323 C-24.99111217 30.48824561 -24.96244485 34.69911206 -24.93239641 38.90999508 C-24.90177517 43.31410315 -24.87612387 47.71824061 -24.84970093 52.12237549 C-24.8044699 59.52366791 -24.75499473 66.92492321 -24.703125 74.32617188 C-24.6432415 82.87956881 -24.5904316 91.43298756 -24.54135668 99.98645282 C-24.49396324 108.21228459 -24.4411431 116.43807335 -24.38599777 124.66385651 C-24.36264855 128.16449387 -24.34126915 131.66513506 -24.32149124 135.16579437 C-24.29795735 139.29273879 -24.26968937 143.41962454 -24.23780251 147.5465126 C-24.2268741 149.05978676 -24.21757441 150.5730737 -24.21003914 152.08636856 C-24.19946655 154.15551956 -24.18294218 156.22454224 -24.16494751 158.29364014 C-24.15719614 159.45065807 -24.14944477 160.60767601 -24.14145851 161.7997551 C-24.00253114 164.94273756 -23.58594795 167.9118364 -23 171 C-22.34 171 -21.68 171 -21 171 C-20.67 173.31 -20.34 175.62 -20 178 C-14.555 177.01 -14.555 177.01 -9 176 C-9 175.01 -9 174.02 -9 173 C-8.13117188 172.95101562 -7.26234375 172.90203125 -6.3671875 172.8515625 C-4.63855469 172.73941406 -4.63855469 172.73941406 -2.875 172.625 C-1.16957031 172.52058594 -1.16957031 172.52058594 0.5703125 172.4140625 C3.95393616 172.00556124 6.81612441 171.19032431 10 170 C10 169.34 10 168.68 10 168 C10.85980469 167.5875 11.71960938 167.175 12.60546875 166.75 C20.18122776 163.04886583 27.35950059 159.06285755 34.453125 154.50390625 C37 153 37 153 39 153 C39.33 152.01 39.66 151.02 40 150 C42.28515625 149.05078125 42.28515625 149.05078125 45.0625 148.3125 C46.44115234 147.93544922 46.44115234 147.93544922 47.84765625 147.55078125 C48.55792969 147.36902344 49.26820313 147.18726563 50 147 C50 147.66 50 148.32 50 149 C49.01 149 48.02 149 47 149 C47 149.66 47 150.32 47 151 C45.948125 151.433125 44.89625 151.86625 43.8125 152.3125 C41.45270359 153.31565232 39.40094175 154.35943495 37.1875 155.6875 C35 157 35 157 33 157 C33 157.66 33 158.32 33 159 C29.535 159.99 29.535 159.99 26 161 C26 161.66 26 162.32 26 163 C25.49210937 163.24234375 24.98421875 163.4846875 24.4609375 163.734375 C21.04903306 165.39560188 17.79282109 167.05984911 14.6875 169.25 C12 171 12 171 9 171 C9 171.66 9 172.32 9 173 C7.02 173.99 5.04 174.98 3 176 C3.33 176.99 3.66 177.98 4 179 C3.67 179.66 3.34 180.32 3 181 C1.02 181 -0.96 181 -3 181 C-2.67 180.34 -2.34 179.68 -2 179 C-3.02673828 179.49113281 -3.02673828 179.49113281 -4.07421875 179.9921875 C-7.48912059 181.16848212 -10.21031284 181.19777146 -13.8125 181.125 C-14.97394531 181.10695313 -16.13539063 181.08890625 -17.33203125 181.0703125 C-18.21246094 181.04710937 -19.09289062 181.02390625 -20 181 C-20 180.34 -20 179.68 -20 179 C-20.99 179 -21.98 179 -23 179 C-26.87913759 172.61819299 -28.12256879 168.08224363 -28.13371277 160.52346802 C-28.13797775 159.21410278 -28.14224274 157.90473755 -28.14663696 156.55569458 C-28.14628748 155.1115112 -28.14582596 153.66732784 -28.14526367 152.22314453 C-28.14825701 150.69683754 -28.15165995 149.17053131 -28.15544128 147.64422607 C-28.16426746 143.50368428 -28.16661881 139.36316315 -28.16725707 135.22261286 C-28.16796833 132.63433652 -28.17010409 130.04606541 -28.17275429 127.45779037 C-28.18200296 118.42416806 -28.18608975 109.39056049 -28.18530273 100.35693359 C-28.18470199 91.94260625 -28.19525442 83.52834303 -28.2110464 75.11403191 C-28.22413084 67.88415448 -28.22948625 60.65429798 -28.22884732 53.42440879 C-28.22859261 49.10886561 -28.23142902 44.79337942 -28.24202538 40.47784805 C-28.25172162 36.41816693 -28.25177509 32.35859714 -28.24450874 28.29891205 C-28.24346482 26.81184349 -28.24581438 25.32476794 -28.2518692 23.83771133 C-28.25961896 21.80198814 -28.25373155 19.76622685 -28.24723816 17.73049927 C-28.24778293 16.59304827 -28.24832769 15.45559727 -28.24888897 14.28367805 C-27.78904848 8.21684382 -26.4206886 3.29789169 -22 -1 C-14.62511328 -4.60168886 -7.03257799 -3.79759211 0 0 Z " fill="#4268BF" transform="translate(204,155)"/>
<path d="M0 0 C1.6875 1.5625 1.6875 1.5625 3 3 C5.09989652 4.17574711 5.09989652 4.17574711 7 5 C6.67 5.66 6.34 6.32 6 7 C3.68628057 5.85657478 1.37400323 4.71038936 -0.9375 3.5625 C-1.59685547 3.23701172 -2.25621094 2.91152344 -2.93554688 2.57617188 C-7.88671875 0.11328125 -7.88671875 0.11328125 -9 -1 C-13.75074359 -1.14002192 -17.76968044 -0.63933292 -21.5 2.4375 C-25.23478094 6.26565046 -25.12532268 8.13629193 -25.12698364 13.39497375 C-25.12854363 14.05877381 -25.13010362 14.72257387 -25.13171089 15.40648907 C-25.13571438 17.64121356 -25.13253371 19.87587066 -25.12939453 22.1105957 C-25.1307489 23.70866943 -25.13252903 25.30674285 -25.13470459 26.90481567 C-25.1392758 31.25407555 -25.13749035 35.6033118 -25.1343255 39.95257211 C-25.13179899 44.49997285 -25.13414038 49.04737152 -25.13571167 53.59477234 C-25.13753306 61.23562993 -25.13512842 68.87647786 -25.13037109 76.51733398 C-25.12493437 85.35139914 -25.12668697 94.1854412 -25.1321975 103.0195058 C-25.13673644 110.59918138 -25.13737516 118.17885 -25.13475883 125.7585265 C-25.13319962 130.28753646 -25.13299247 134.81653556 -25.13629532 139.34554482 C-25.13918515 143.60624521 -25.13717783 147.86691588 -25.13140106 152.12761307 C-25.13007919 153.6913072 -25.13045787 155.25500384 -25.13266373 156.81869698 C-25.13539786 158.95385683 -25.13196632 161.08892152 -25.12698364 163.22407532 C-25.12660662 164.41888677 -25.12622959 165.61369822 -25.12584114 166.84471607 C-25.01247199 169.6872829 -24.65451591 172.23794734 -24 175 C-26.96349387 172.55189637 -27.44814298 170.75093004 -28 167 C-28.09152759 164.84263664 -28.13052929 162.68276972 -28.13371277 160.52346802 C-28.13797775 159.21410278 -28.14224274 157.90473755 -28.14663696 156.55569458 C-28.14628748 155.1115112 -28.14582596 153.66732784 -28.14526367 152.22314453 C-28.14825701 150.69683754 -28.15165995 149.17053131 -28.15544128 147.64422607 C-28.16426746 143.50368428 -28.16661881 139.36316315 -28.16725707 135.22261286 C-28.16796833 132.63433652 -28.17010409 130.04606541 -28.17275429 127.45779037 C-28.18200296 118.42416806 -28.18608975 109.39056049 -28.18530273 100.35693359 C-28.18470199 91.94260625 -28.19525442 83.52834303 -28.2110464 75.11403191 C-28.22413084 67.88415448 -28.22948625 60.65429798 -28.22884732 53.42440879 C-28.22859261 49.10886561 -28.23142902 44.79337942 -28.24202538 40.47784805 C-28.25172162 36.41816693 -28.25177509 32.35859714 -28.24450874 28.29891205 C-28.24346482 26.81184349 -28.24581438 25.32476794 -28.2518692 23.83771133 C-28.25961896 21.80198814 -28.25373155 19.76622685 -28.24723816 17.73049927 C-28.24778293 16.59304827 -28.24832769 15.45559727 -28.24888897 14.28367805 C-27.78904848 8.21684382 -26.4206886 3.29789169 -22 -1 C-14.62511328 -4.60168886 -7.03257799 -3.79759211 0 0 Z " fill="#BAD7F5" transform="translate(204,155)"/>
<path d="M0 0 C0.94488281 0.61359375 1.88976562 1.2271875 2.86328125 1.859375 C7.75410469 4.88412366 12.41705327 6.98110726 17.8984375 8.6875 C20.28620535 9.65407498 21.51458058 10.6703998 23.17578125 12.609375 C22.60730469 12.51398438 22.03882813 12.41859375 21.453125 12.3203125 C16.0460977 11.54401142 12.31503497 11.75049599 7.17578125 13.609375 C6.84578125 11.959375 6.51578125 10.309375 6.17578125 8.609375 C7.49578125 8.939375 8.81578125 9.269375 10.17578125 9.609375 C10.17578125 8.949375 10.17578125 8.289375 10.17578125 7.609375 C8.85578125 7.609375 7.53578125 7.609375 6.17578125 7.609375 C6.17578125 6.949375 6.17578125 6.289375 6.17578125 5.609375 C4.85578125 5.609375 3.53578125 5.609375 2.17578125 5.609375 C2.17578125 4.949375 2.17578125 4.289375 2.17578125 3.609375 C1.18578125 3.609375 0.19578125 3.609375 -0.82421875 3.609375 C-0.82421875 2.949375 -0.82421875 2.289375 -0.82421875 1.609375 C-6.76421875 2.104375 -6.76421875 2.104375 -12.82421875 2.609375 C-13.15421875 3.599375 -13.48421875 4.589375 -13.82421875 5.609375 C-14.81421875 5.609375 -15.80421875 5.609375 -16.82421875 5.609375 C-17.15421875 58.409375 -17.48421875 111.209375 -17.82421875 165.609375 C-18.15421875 165.609375 -18.48421875 165.609375 -18.82421875 165.609375 C-19.09508044 145.12995718 -19.3312595 124.65041878 -19.52624321 104.17013454 C-19.61758647 94.66059791 -19.72024247 85.15143563 -19.84960938 75.64233398 C-19.96234725 67.3534314 -20.05377928 59.06461324 -20.11971676 50.77520138 C-20.15536758 46.38657324 -20.20162363 41.99863948 -20.27340317 37.61044121 C-20.34066651 33.47774618 -20.37937764 29.34575446 -20.39646339 25.21255684 C-20.40770871 23.69796453 -20.42927089 22.18340717 -20.46207619 20.66912842 C-20.73094413 7.80975545 -20.73094413 7.80975545 -16.94363403 3.24305725 C-12.0521331 -1.39019264 -6.26502082 -3.08485119 0 0 Z " fill="#2E5DC1" transform="translate(197.82421875,154.390625)"/>
<path d="M0 0 C1.65 0 3.3 0 5 0 C5 0.66 5 1.32 5 2 C5.99 2.3403125 5.99 2.3403125 7 2.6875 C9.520913 3.79039944 11.57896364 4.95445706 13.875 6.4375 C16.37944261 8.05116321 18.51493248 9.20402985 21.3125 10.3125 C27.622566 12.87733052 34.23075697 17.11494928 37.80859375 22.94921875 C40.27979236 29.27710765 39.61779947 35.78272625 37 42 C36.01 42 35.02 42 34 42 C32.2611251 42.78358951 32.2611251 42.78358951 30.48046875 43.90625 C29.45083008 44.52209961 29.45083008 44.52209961 28.40039062 45.15039062 C27.67013672 45.59576172 26.93988281 46.04113281 26.1875 46.5 C24.66073679 47.41763326 23.13338306 48.33428466 21.60546875 49.25 C20.8376709 49.71148437 20.06987305 50.17296875 19.27880859 50.6484375 C17.13465909 51.92013363 14.97542059 53.15633149 12.80078125 54.375 C12.15794189 54.73529297 11.51510254 55.09558594 10.8527832 55.46679688 C9.09086617 56.44932855 7.32674133 57.42789799 5.5625 58.40625 C2.90846206 59.74697418 2.90846206 59.74697418 2 62 C0.35 62 -1.3 62 -3 62 C-0.6840398 59.45610204 1.71896928 57.86972182 4.7109375 56.1875 C6.08378906 55.41019531 6.08378906 55.41019531 7.484375 54.6171875 C8.43828125 54.08351563 9.3921875 53.54984375 10.375 53 C12.25804027 51.93790372 14.14085984 50.87541604 16.0234375 49.8125 C16.85794434 49.34457031 17.69245117 48.87664062 18.55224609 48.39453125 C21.05826371 46.96680608 23.5323112 45.49283338 26 44 C25.67 43.34 25.34 42.68 25 42 C25.99 42 26.98 42 28 42 C28 41.34 28 40.68 28 40 C32.47058824 36 32.47058824 36 35 36 C35.33 32.37 35.66 28.74 36 25 C35.34 25 34.68 25 34 25 C33.7215625 23.89978516 33.7215625 23.89978516 33.4375 22.77734375 C31.48219814 18.99957303 28.6013909 17.54933772 25 15.5625 C23.6353882 14.77869539 22.27080492 13.99484113 20.90625 13.2109375 C20.23851562 12.83420898 19.57078125 12.45748047 18.8828125 12.06933594 C16.39319018 10.65536476 13.94629904 9.17491022 11.5 7.6875 C7.69619925 5.40394738 3.86230643 3.18304276 0 1 C0 0.67 0 0.34 0 0 Z " fill="#5177BA" transform="translate(302,214)"/>
<path d="M0 0 C1.04800781 0.433125 1.04800781 0.433125 2.1171875 0.875 C3.02726563 1.24625 3.93734375 1.6175 4.875 2 C5.77992188 2.37125 6.68484375 2.7425 7.6171875 3.125 C9.88983858 4.11490226 9.88983858 4.11490226 12 4 C12 3.67 12 3.34 12 3 C13.98 3 15.96 3 18 3 C17.34 4.98 16.68 6.96 16 9 C16.99 9 17.98 9 19 9 C19 9.66 19 10.32 19 11 C20.32 11 21.64 11 23 11 C23 11.66 23 12.32 23 13 C25.31 13.66 27.62 14.32 30 15 C30 15.66 30 16.32 30 17 C30.99 17 31.98 17 33 17 C33 17.66 33 18.32 33 19 C33.99 19 34.98 19 36 19 C36 19.66 36 20.32 36 21 C36.598125 21.144375 37.19625 21.28875 37.8125 21.4375 C39.56150404 21.8872439 41.28677023 22.42892341 43 23 C43 23.66 43 24.32 43 25 C43.55558594 25.103125 44.11117187 25.20625 44.68359375 25.3125 C47.47821321 26.14193175 49.5953498 27.45198419 52.0625 29 C54.76080698 30.68796347 56.97148084 31.99049361 60 33 C60 33.66 60 34.32 60 35 C56.7 34.34 53.4 33.68 50 33 C50 32.34 50 31.68 50 31 C45.9899066 30.82135369 45.9899066 30.82135369 42 31 C41.34 31.66 40.68 32.32 40 33 C39.01 32.67 38.02 32.34 37 32 C37.33 31.34 37.66 30.68 38 30 C37.01 29.67 36.02 29.34 35 29 C35.66 29 36.32 29 37 29 C37 28.34 37 27.68 37 27 C38.5 25.375 38.5 25.375 40 24 C37.69 24.66 35.38 25.32 33 26 C33.01417969 25.11570313 33.02835938 24.23140625 33.04296875 23.3203125 C31.66036804 18.91877466 29.75458692 18.20279611 25.80664062 16.11328125 C24.98357422 15.70464844 24.16050781 15.29601562 23.3125 14.875 C21.7032467 14.0413371 20.0951491 13.20543909 18.48828125 12.3671875 C17.71645508 11.96951172 16.94462891 11.57183594 16.14941406 11.16210938 C13.30516481 9.62432809 10.66931543 7.82086829 8 6 C6.55814288 5.21879313 5.10180477 4.46294023 3.625 3.75 C2.93664062 3.41484375 2.24828125 3.0796875 1.5390625 2.734375 C1.03117188 2.49203125 0.52328125 2.2496875 0 2 C0 1.34 0 0.68 0 0 Z " fill="#5A89CF" transform="translate(221,167)"/>
<path d="M0 0 C-3.70617802 2.50491222 -6.64176647 3.48685455 -11.0625 4.0625 C-14.76365159 4.55256421 -17.8101436 4.98884343 -21 7 C-21.33 7.66 -21.66 8.32 -22 9 C-28.56124477 9.05129926 -35.12243662 9.08598106 -41.68383789 9.10986328 C-43.90944349 9.1198342 -46.13503628 9.13341579 -48.3605957 9.15087891 C-80.03913864 9.39297161 -80.03913864 9.39297161 -90 5 C-90 4.67 -90 4.34 -90 4 C-88.45808846 4.14322103 -86.91648108 4.28971789 -85.375 4.4375 C-84.51648438 4.51871094 -83.65796875 4.59992188 -82.7734375 4.68359375 C-80 5 -80 5 -77.36572266 5.50927734 C-73.34002992 6.09622369 -69.43698902 6.16216005 -65.375 6.16796875 C-64.55104736 6.17129715 -63.72709473 6.17462555 -62.87817383 6.17805481 C-61.13672439 6.18310163 -59.39526534 6.18546383 -57.65380859 6.18530273 C-55.03596261 6.18747022 -52.41855177 6.20559708 -49.80078125 6.22460938 C-36.74113087 6.27030504 -24.36394285 5.4953425 -11.875 1.3125 C-3.47440231 -1.48517197 -3.47440231 -1.48517197 0 0 Z " fill="#D1DEF1" transform="translate(294,397)"/>
<path d="M0 0 C6.64145362 5.08707086 11.1685816 11.21545502 16 18 C16.64453125 18.8971875 17.2890625 19.794375 17.953125 20.71875 C21.49132302 25.70299416 24.82134012 30.78042935 28 36 C28.556875 36.86625 29.11375 37.7325 29.6875 38.625 C31.18395309 41.33286749 32.10630123 44.04391946 33 47 C31 46 31 46 29.8125 43.625 C27.33266504 40.03351488 25.06137745 39.4559655 21 38 C21 38.66 21 39.32 21 40 C20.34 40 19.68 40 19 40 C19 39.01 19 38.02 19 37 C19.66 37 20.32 37 21 37 C20.81535634 32.65815798 20.81535634 32.65815798 19 29 C18.95936168 27.33382885 18.957279 25.66611905 19 24 C17.68 24 16.36 24 15 24 C11 18.88888889 11 18.88888889 11 16 C10.34 16 9.68 16 9 16 C8.67 14.02 8.34 12.04 8 10 C7.34 10 6.68 10 6 10 C6 9.01 6 8.02 6 7 C4.68 7.33 3.36 7.66 2 8 C1.10869587 5.3260876 0.52268466 2.76276177 0 0 Z " fill="#C8D7E7" transform="translate(396,100)"/>
<path d="M0 0 C5.79007727 -0.20597113 10.53490165 -0.16062028 16 2 C19.57880866 2.85506477 22.94182593 3.1461903 26.61645508 3.20532227 C27.71721878 3.22526749 28.81798248 3.24521271 29.95210266 3.26576233 C31.1293541 3.28247482 32.30660553 3.29918732 33.51953125 3.31640625 C34.73323898 3.33718735 35.94694672 3.35796844 37.19743347 3.37937927 C41.06906551 3.44468916 44.94076455 3.50367363 48.8125 3.5625 C51.43946002 3.60570285 54.06641329 3.64931771 56.69335938 3.69335938 C63.12883571 3.80035158 69.56437849 3.90215236 76 4 C76 4.66 76 5.32 76 6 C50.68627444 8.06341868 24.60798544 7.87373895 0 1 C0 0.67 0 0.34 0 0 Z " fill="#CFDDEC" transform="translate(188,450)"/>
<path d="M0 0 C0.94488281 0.61359375 1.88976562 1.2271875 2.86328125 1.859375 C7.75410469 4.88412366 12.41705327 6.98110726 17.8984375 8.6875 C20.28620535 9.65407498 21.51458058 10.6703998 23.17578125 12.609375 C22.60730469 12.51398438 22.03882813 12.41859375 21.453125 12.3203125 C16.0460977 11.54401142 12.31503497 11.75049599 7.17578125 13.609375 C6.84578125 11.959375 6.51578125 10.309375 6.17578125 8.609375 C7.49578125 8.939375 8.81578125 9.269375 10.17578125 9.609375 C10.17578125 8.949375 10.17578125 8.289375 10.17578125 7.609375 C8.85578125 7.609375 7.53578125 7.609375 6.17578125 7.609375 C6.17578125 6.949375 6.17578125 6.289375 6.17578125 5.609375 C4.85578125 5.609375 3.53578125 5.609375 2.17578125 5.609375 C2.17578125 4.949375 2.17578125 4.289375 2.17578125 3.609375 C1.18578125 3.609375 0.19578125 3.609375 -0.82421875 3.609375 C-0.82421875 2.949375 -0.82421875 2.289375 -0.82421875 1.609375 C-6.76421875 2.104375 -6.76421875 2.104375 -12.82421875 2.609375 C-13.15421875 3.599375 -13.48421875 4.589375 -13.82421875 5.609375 C-14.81421875 5.609375 -15.80421875 5.609375 -16.82421875 5.609375 C-16.82421875 6.929375 -16.82421875 8.249375 -16.82421875 9.609375 C-17.48421875 9.609375 -18.14421875 9.609375 -18.82421875 9.609375 C-18.82421875 14.889375 -18.82421875 20.169375 -18.82421875 25.609375 C-19.15421875 25.609375 -19.48421875 25.609375 -19.82421875 25.609375 C-20.85710448 7.53387466 -20.85710448 7.53387466 -17.13671875 3.109375 C-12.05207285 -1.28461642 -6.28489538 -3.09463728 0 0 Z " fill="#4A72AC" transform="translate(197.82421875,154.390625)"/>
<path d="M0 0 C4.455 0.99 4.455 0.99 9 2 C9 2.66 9 3.32 9 4 C9.66 4 10.32 4 11 4 C11 4.66 11 5.32 11 6 C11.78375 6.144375 12.5675 6.28875 13.375 6.4375 C16 7 16 7 18 8 C18 8.66 18 9.32 18 10 C18.99 10.33 19.98 10.66 21 11 C21.33 11.66 21.66 12.32 22 13 C22.9075 13.45375 23.815 13.9075 24.75 14.375 C27.89863952 15.94931976 30.33157688 17.72399205 33 20 C31.02 20 29.04 20 27 20 C27 19.34 27 18.68 27 18 C26.01 18 25.02 18 24 18 C24 17.34 24 16.68 24 16 C21.69 16 19.38 16 17 16 C17 16.66 17 17.32 17 18 C15.02 18 13.04 18 11 18 C11.5259375 16.39125 11.5259375 16.39125 12.0625 14.75 C13.2471413 10.6939111 13.2471413 10.6939111 12 7 C9.78566059 5.91257306 9.78566059 5.91257306 7 5 C4.62503741 3.73138644 2.32161307 2.36565475 0 1 C0 0.67 0 0.34 0 0 Z " fill="#2F6ABA" transform="translate(281,202)"/>
<path d="M0 0 C0.99 0.33 1.98 0.66 3 1 C3 1.66 3 2.32 3 3 C4.65 3 6.3 3 8 3 C8.10957031 3.56589844 8.21914063 4.13179687 8.33203125 4.71484375 C8.49058594 5.44832031 8.64914062 6.18179688 8.8125 6.9375 C8.96332031 7.66839844 9.11414063 8.39929688 9.26953125 9.15234375 C9.63111328 10.06693359 9.63111328 10.06693359 10 11 C10.99 11.33 11.98 11.66 13 12 C14.1328125 15.01953125 14.1328125 15.01953125 15.125 18.8125 C15.62386719 20.67841797 15.62386719 20.67841797 16.1328125 22.58203125 C17.46560403 27.83515101 17.46560403 27.83515101 18 30 C18.99 29.67 19.98 29.34 21 29 C22 32 22 32 21.9375 34.625 C22.01712994 38.92501668 22.96500418 42.84153466 24 47 C21.35330155 44.35330155 20.7611766 41.79001687 19.5625 38.25 C18.32323622 34.59825092 17.08850504 31.17409461 15.33984375 27.734375 C14 25 14 25 14 22 C13.34 22 12.68 22 12 22 C11.67386719 21.33613281 11.34773438 20.67226562 11.01171875 19.98828125 C8.25338463 14.4110217 8.25338463 14.4110217 5.1875 9 C4 7 4 7 4 5 C3.34 5 2.68 5 2 5 C1.34 3.35 0.68 1.7 0 0 Z " fill="#C9D7E5" transform="translate(370,149)"/>
<path d="M0 0 C0.495 0.99 0.495 0.99 1 2 C0.01 2 -0.98 2 -2 2 C-2 2.66 -2 3.32 -2 4 C-3.051875 4.433125 -4.10375 4.86625 -5.1875 5.3125 C-7.54729641 6.31565232 -9.59905825 7.35943495 -11.8125 8.6875 C-14 10 -14 10 -16 10 C-16 10.66 -16 11.32 -16 12 C-18.31 12.66 -20.62 13.32 -23 14 C-23 14.66 -23 15.32 -23 16 C-23.50789063 16.24234375 -24.01578125 16.4846875 -24.5390625 16.734375 C-27.95096694 18.39560188 -31.20717891 20.05984911 -34.3125 22.25 C-37 24 -37 24 -40 24 C-40 24.66 -40 25.32 -40 26 C-41.98 26.99 -43.96 27.98 -46 29 C-45.67 29.99 -45.34 30.98 -45 32 C-45.33 32.66 -45.66 33.32 -46 34 C-47.98 34 -49.96 34 -52 34 C-51.67 33.34 -51.34 32.68 -51 32 C-51.33 31.67 -51.66 31.34 -52 31 C-51.67 30.34 -51.34 29.68 -51 29 C-50.34 29 -49.68 29 -49 29 C-49 28.34 -49 27.68 -49 27 C-47.71086513 26.32845067 -46.41859796 25.66291141 -45.125 25 C-44.40570313 24.62875 -43.68640625 24.2575 -42.9453125 23.875 C-41 23 -41 23 -39 23 C-39 22.34 -39 21.68 -39 21 C-38.14019531 20.5875 -37.28039062 20.175 -36.39453125 19.75 C-28.81877224 16.04886583 -21.64049941 12.06285755 -14.546875 7.50390625 C-12 6 -12 6 -10 6 C-9.67 5.01 -9.34 4.02 -9 3 C-6.93359375 2.05078125 -6.93359375 2.05078125 -4.4375 1.3125 C-3.61121094 1.06113281 -2.78492188 0.80976563 -1.93359375 0.55078125 C-1.29550781 0.36902344 -0.65742188 0.18726563 0 0 Z " fill="#B7D6EF" transform="translate(253,302)"/>
<path d="M0 0 C2 2 2 2 2.125 4.625 C2.08375 5.40875 2.0425 6.1925 2 7 C2.99 7 3.98 7 5 7 C5.88299245 16.5493246 6.20034924 26.03761214 6.1875 35.625 C6.18756042 36.31989532 6.18762085 37.01479065 6.18768311 37.73074341 C6.17706542 46.32748897 6.00933684 54.87847339 5.125 63.4375 C5.04660889 64.21109863 4.96821777 64.98469727 4.88745117 65.78173828 C4.67399617 67.53317444 4.34976241 69.27061921 4 71 C3.01 71.495 3.01 71.495 2 72 C2.06058594 71.36610352 2.12117188 70.73220703 2.18359375 70.07910156 C4.4476747 46.10596754 3.16755901 23.82408746 0 0 Z " fill="#D9E7F4" transform="translate(396,203)"/>
<path d="M0 0 C1.20452316 0.00014351 1.20452316 0.00014351 2.43338013 0.00028992 C5.0429783 0.00401248 7.65219894 0.02292329 10.26171875 0.04296875 C12.04109577 0.04980742 13.82047409 0.05631757 15.59985352 0.0625 C28.06698374 0.12465668 40.50517077 0.43947365 52.94921875 1.23046875 C52.61921875 2.22046875 52.28921875 3.21046875 51.94921875 4.23046875 C52.93921875 5.22046875 52.93921875 5.22046875 53.94921875 6.23046875 C49.50088442 5.77682673 45.10345765 5.29538411 40.70703125 4.4765625 C23.54471629 1.40525398 6.31299909 1.94340328 -11.05078125 2.23046875 C-7.29131388 -0.27584283 -4.3503238 -0.04047994 0 0 Z " fill="#D4DFEF" transform="translate(230.05078125,82.76953125)"/>
<path d="M0 0 C3.63 0 7.26 0 11 0 C10.01 0.495 10.01 0.495 9 1 C9 1.66 9 2.32 9 3 C4.13190638 7.22755499 1.78982556 8.12539045 -4.625 8.0625 C-5.81351563 8.05347656 -7.00203125 8.04445313 -8.2265625 8.03515625 C-9.14179688 8.02355469 -10.05703125 8.01195312 -11 8 C-11 7.34 -11 6.68 -11 6 C-11.99 6 -12.98 6 -14 6 C-14.33 4.68 -14.66 3.36 -15 2 C-14.18789062 2.50660156 -14.18789062 2.50660156 -13.359375 3.0234375 C-10.38940883 4.25272813 -8.42367191 4.00281808 -5.25 3.625 C-4.26515625 3.51414062 -3.2803125 3.40328125 -2.265625 3.2890625 C-1.51796875 3.19367188 -0.7703125 3.09828125 0 3 C0 2.01 0 1.02 0 0 Z " fill="#4E74BE" transform="translate(195,328)"/>
<path d="M0 0 C1.04800781 0.433125 1.04800781 0.433125 2.1171875 0.875 C3.02726563 1.24625 3.93734375 1.6175 4.875 2 C5.77992188 2.37125 6.68484375 2.7425 7.6171875 3.125 C9.88983858 4.11490226 9.88983858 4.11490226 12 4 C12 3.67 12 3.34 12 3 C13.98 3 15.96 3 18 3 C17.34 4.98 16.68 6.96 16 9 C16.99 9 17.98 9 19 9 C19 9.66 19 10.32 19 11 C20.32 11 21.64 11 23 11 C23 11.66 23 12.32 23 13 C25.31 13.66 27.62 14.32 30 15 C30 15.66 30 16.32 30 17 C30.99 17 31.98 17 33 17 C33 17.66 33 18.32 33 19 C33.99 19 34.98 19 36 19 C35.67 19.66 35.34 20.32 35 21 C26.5148028 16.90112808 18.29276087 12.7491475 10.41796875 7.54296875 C7.06438806 5.40296168 3.59550835 3.69599451 0 2 C0 1.34 0 0.68 0 0 Z " fill="#B5D7F0" transform="translate(221,167)"/>
<path d="M0 0 C0 0.66 0 1.32 0 2 C-0.66 2 -1.32 2 -2 2 C-2 2.66 -2 3.32 -2 4 C-3.65 4 -5.3 4 -7 4 C-7 4.66 -7 5.32 -7 6 C-19.43022938 13.669716 -19.43022938 13.669716 -25.26953125 12.57421875 C-25.84058594 12.38472656 -26.41164062 12.19523437 -27 12 C-24.35261084 10.5393715 -23.10551666 10 -20 10 C-20 9.34 -20 8.68 -20 8 C-19.01 8 -18.02 8 -17 8 C-16.690625 7.195625 -16.38125 6.39125 -16.0625 5.5625 C-15 3 -15 3 -14 2 C-12.35892758 1.79160985 -10.71143707 1.63248275 -9.0625 1.5 C-5.90210889 1.24534978 -3.01721566 0 0 0 Z " fill="#3B65AF" transform="translate(271,292)"/>
<path d="M0 0 C1.06723961 3.46222615 1.10173486 6.64039266 1.0625 10.25 C1.05347656 11.32765625 1.04445313 12.4053125 1.03515625 13.515625 C1.02355469 14.33546875 1.01195312 15.1553125 1 16 C0.34 16 -0.32 16 -1 16 C-1.226875 16.721875 -1.45375 17.44375 -1.6875 18.1875 C-3.26335128 21.56432417 -5.20876616 23.55767039 -8 26 C-8.66 26 -9.32 26 -10 26 C-8.10648628 20.10906842 -6.03429969 14.29771322 -3.875 8.5 C-3.60929199 7.78134766 -3.34358398 7.06269531 -3.06982422 6.32226562 C-1.11935515 1.11935515 -1.11935515 1.11935515 0 0 Z " fill="#CBD9EB" transform="translate(393,293)"/>
<path d="M0 0 C0.66 0.33 1.32 0.66 2 1 C0.42210402 2.15330947 -1.1625482 3.29737927 -2.75 4.4375 C-3.63171875 5.07558594 -4.5134375 5.71367187 -5.421875 6.37109375 C-7.72699125 7.8275081 -9.34349572 8.55931821 -12 9 C-12 9.66 -12 10.32 -12 11 C-13.32 10.67 -14.64 10.34 -16 10 C-16 10.66 -16 11.32 -16 12 C-21.17578125 15.22265625 -21.17578125 15.22265625 -23 16 C-23.99 15.67 -24.98 15.34 -26 15 C-24.35 14.34 -22.7 13.68 -21 13 C-21 12.01 -21 11.02 -21 10 C-20.34 10 -19.68 10 -19 10 C-19 9.01 -19 8.02 -19 7 C-15.535 6.505 -15.535 6.505 -12 6 C-12 5.34 -12 4.68 -12 4 C-11.319375 4.0825 -10.63875 4.165 -9.9375 4.25 C-6.93091765 3.99412065 -5.81968701 3.46384189 -3.3125 1.9375 C-1.6728125 0.9784375 -1.6728125 0.9784375 0 0 Z " fill="#6C8EC5" transform="translate(297,276)"/>
<path d="M0 0 C0.66 0.33 1.32 0.66 2 1 C1.64808594 1.64582031 1.29617187 2.29164063 0.93359375 2.95703125 C-2.94692122 10.36344494 -5.91303939 17.86530898 -8.63891602 25.76293945 C-8.91791748 26.55659912 -9.19691895 27.35025879 -9.484375 28.16796875 C-9.72897461 28.88235107 -9.97357422 29.5967334 -10.22558594 30.33276367 C-11 32 -11 32 -13 33 C-13 30.03 -13 27.06 -13 24 C-12.01 23.67 -11.02 23.34 -10 23 C-9.34 19.7 -8.68 16.4 -8 13 C-7.34 13 -6.68 13 -6 13 C-6.226875 12.236875 -6.45375 11.47375 -6.6875 10.6875 C-7 8 -7 8 -5.6875 6.1875 C-4 5 -4 5 -2 5 C-1.34 3.35 -0.68 1.7 0 0 Z " fill="#D3DFF1" transform="translate(97,167)"/>
<path d="M0 0 C1.65 0 3.3 0 5 0 C5 0.66 5 1.32 5 2 C5.99 2.3403125 5.99 2.3403125 7 2.6875 C9.520913 3.79039944 11.57896364 4.95445706 13.875 6.4375 C16.37944261 8.05116321 18.51493248 9.20402985 21.3125 10.3125 C26.7203503 12.49571566 31.69016467 16.11518304 36 20 C36.8203125 22.25390625 36.8203125 22.25390625 37 24 C36.34 23.67 35.68 23.34 35 23 C35 22.34 35 21.68 35 21 C33.95392578 20.62101562 33.95392578 20.62101562 32.88671875 20.234375 C29.63782646 18.84513283 26.80397116 17.13014509 23.8125 15.25 C22.66042827 14.53081407 21.50808158 13.81206842 20.35546875 13.09375 C19.24816406 12.4028125 18.14085937 11.711875 17 11 C11.38130717 7.58060187 5.72599679 4.23643297 0 1 C0 0.67 0 0.34 0 0 Z " fill="#BFDDF2" transform="translate(302,214)"/>
<path d="M0 0 C-8.28223461 4.76379626 -16.5878459 9.46773738 -25 14 C-25 12.68 -25 11.36 -25 10 C-23.35 10 -21.7 10 -20 10 C-20 9.34 -20 8.68 -20 8 C-19.34 8 -18.68 8 -18 8 C-18 4.88742431 -18.17361624 2.89234315 -19 0 C-17.68 0 -16.36 0 -15 0 C-15 1.32 -15 2.64 -15 4 C-13.35 4 -11.7 4 -10 4 C-10 3.34 -10 2.68 -10 2 C-9.01 2 -8.02 2 -7 2 C-7 1.34 -7 0.68 -7 0 C-3.86650268 -1.04449911 -3.01031744 -0.93423645 0 0 Z " fill="#2668BF" transform="translate(243,308)"/>
<path d="M0 0 C0.33 0.99 0.66 1.98 1 3 C1.66 3 2.32 3 3 3 C3 3.99 3 4.98 3 6 C2.01 6 1.02 6 0 6 C0.2475 6.53625 0.495 7.0725 0.75 7.625 C1.14696373 11.3961554 -0.6842711 13.13580899 -3 16 C-5.28612278 17.57851335 -7.5256866 18.7628433 -10 20 C-8.68938409 15.76570244 -7.05643741 11.92592596 -5 8 C-4.34 8 -3.68 8 -3 8 C-2.690625 7.05125 -2.38125 6.1025 -2.0625 5.125 C-1 2 -1 2 0 0 Z " fill="#C8D9EB" transform="translate(58,132)"/>
<path d="M0 0 C1.134375 0.020625 2.26875 0.04125 3.4375 0.0625 C0.81547139 1.81051908 -1.0874925 2.6974091 -4.01953125 3.68359375 C-5.31793945 4.12735352 -5.31793945 4.12735352 -6.64257812 4.58007812 C-7.54427734 4.88365234 -8.44597656 5.18722656 -9.375 5.5 C-16.29724094 7.81113073 -16.29724094 7.81113073 -22.94921875 10.78515625 C-25.5625 12.0625 -25.5625 12.0625 -29.5625 12.0625 C-29.5625 11.0725 -29.5625 10.0825 -29.5625 9.0625 C-28.2425 9.0625 -26.9225 9.0625 -25.5625 9.0625 C-25.5625 8.4025 -25.5625 7.7425 -25.5625 7.0625 C-24.593125 6.93875 -23.62375 6.815 -22.625 6.6875 C-21.614375 6.48125 -20.60375 6.275 -19.5625 6.0625 C-19.2325 5.4025 -18.9025 4.7425 -18.5625 4.0625 C-17.6034375 4.1553125 -17.6034375 4.1553125 -16.625 4.25 C-10.62685318 3.88276652 -5.58797476 0.09803464 0 0 Z " fill="#CFD9EA" transform="translate(193.5625,88.9375)"/>
<path d="M0 0 C1.32 0 2.64 0 4 0 C4 0.66 4 1.32 4 2 C6.31 2 8.62 2 11 2 C11.33 3.65 11.66 5.3 12 7 C13.98 6.34 15.96 5.68 18 5 C18 5.66 18 6.32 18 7 C17.34 7 16.68 7 16 7 C16 7.66 16 8.32 16 9 C20.32564205 10.58255197 24.428721 11.45144652 29 12 C29.33 13.32 29.66 14.64 30 16 C19.58098451 14.47812133 8.40645071 7.07323174 0 1 C0 0.67 0 0.34 0 0 Z " fill="#D1DCEB" transform="translate(124,422)"/>
<path d="M0 0 C0.33 0 0.66 0 1 0 C1.68325801 8.30612739 -0.12517289 15.83176943 -2.25317383 23.77929688 C-2.81597616 25.88802461 -3.35542536 28.00179736 -3.89257812 30.1171875 C-4.24603652 31.4717096 -4.60080743 32.82589004 -4.95703125 34.1796875 C-5.27647705 35.39382324 -5.59592285 36.60795898 -5.92504883 37.85888672 C-6.93279452 40.80361896 -7.97158626 42.67387387 -10 45 C-10.22448805 41.0714591 -9.49932812 38.60049921 -8 35 C-3.87179066 23.6387516 -1.99021853 11.88211658 0 0 Z " fill="#D6E2EE" transform="translate(450,270)"/>
<path d="M0 0 C1.6875 1.5625 1.6875 1.5625 3 3 C5.09989652 4.17574711 5.09989652 4.17574711 7 5 C6.67 5.66 6.34 6.32 6 7 C3.68628057 5.85657478 1.37400323 4.71038936 -0.9375 3.5625 C-1.59685547 3.23701172 -2.25621094 2.91152344 -2.93554688 2.57617188 C-7.88671875 0.11328125 -7.88671875 0.11328125 -9 -1 C-13.64057226 -1.13677476 -17.71429907 -0.68429547 -21.375 2.3125 C-23.47637796 4.46391077 -25.33542206 6.50313309 -27 9 C-26.49593201 4.5894051 -25.13906582 2.13906582 -22 -1 C-14.62511328 -4.60168886 -7.03257799 -3.79759211 0 0 Z " fill="#CDE4F5" transform="translate(204,155)"/>
<path d="M0 0 C0.66 0.33 1.32 0.66 2 1 C-4.08563494 5.29296729 -10.39310852 8.92391571 -16.984375 12.38671875 C-22.30231307 14.83464288 -22.30231307 14.83464288 -26 19 C-27.65 19 -29.3 19 -31 19 C-28.70021179 16.47886414 -26.3263292 14.89368266 -23.359375 13.22265625 C-22.45316406 12.70896484 -21.54695313 12.19527344 -20.61328125 11.66601562 C-19.66839844 11.13685547 -18.72351563 10.60769531 -17.75 10.0625 C-16.82058594 9.53720703 -15.89117187 9.01191406 -14.93359375 8.47070312 C-13.12138997 7.44669265 -11.30700063 6.42653841 -9.49023438 5.41064453 C-7.92782741 4.52558694 -6.37518092 3.62282263 -4.83789062 2.69482422 C-3.25700598 1.74178832 -1.63251621 0.86160578 0 0 Z " fill="#B9CFEC" transform="translate(330,257)"/>
<path d="M0 0 C2 2 2 2 2.125 4.625 C2.08375 5.40875 2.0425 6.1925 2 7 C2.99 7 3.98 7 5 7 C5.75475351 15.35619957 6.13605482 23.60995285 6 32 C5.67 32 5.34 32 5 32 C4.92652344 31.14728516 4.92652344 31.14728516 4.8515625 30.27734375 C4.77679688 29.50519531 4.70203125 28.73304688 4.625 27.9375 C4.55539062 27.18339844 4.48578125 26.42929688 4.4140625 25.65234375 C4.03873538 22.86571322 4.03873538 22.86571322 3.03125 19.71875 C1.90540362 15.65887972 1.34104226 11.73778022 0.875 7.5625 C0.78863281 6.83095703 0.70226562 6.09941406 0.61328125 5.34570312 C0.40371607 3.56439906 0.20112132 1.78227719 0 0 Z " fill="#D0DEED" transform="translate(396,203)"/>
<path d="M0 0 C0 0.66 0 1.32 0 2 C2.64 2.33 5.28 2.66 8 3 C7.01 3.495 7.01 3.495 6 4 C6 4.66 6 5.32 6 6 C2.535 7.485 2.535 7.485 -1 9 C-2.125 5.25 -2.125 5.25 -1 3 C-3.64 3 -6.28 3 -9 3 C-9 2.34 -9 1.68 -9 1 C-5.94152152 0.45627049 -3.11227195 0 0 0 Z " fill="#2F68BD" transform="translate(208,319)"/>
<path d="M0 0 C2.52861573 2.26053899 3.83856528 4.39900064 5.1875 7.5 C5.53167969 8.2734375 5.87585938 9.046875 6.23046875 9.84375 C7 12 7 12 7 15 C4.625 15.125 4.625 15.125 2 15 C0 13 0 13 -0.1953125 9.9609375 C-0.17210938 8.77757812 -0.14890625 7.59421875 -0.125 6.375 C-0.10695313 5.18648438 -0.08890625 3.99796875 -0.0703125 2.7734375 C-0.04710938 1.85820312 -0.02390625 0.94296875 0 0 Z " fill="#C3CFE6" transform="translate(95,315)"/>
<path d="M0 0 C0.309375 0.928125 0.309375 0.928125 0.625 1.875 C2.54095405 4.8360199 4.71223468 4.92644398 8 6 C10.39472416 8.31490002 10.9599226 9.41219818 11.1875 12.75 C11.125625 13.4925 11.06375 14.235 11 15 C6.85074131 11.60833067 3.25076201 8.2956498 0 4 C-0.98230498 2.9826127 -1.97469597 1.97403883 -3 1 C-2.01 0.67 -1.02 0.34 0 0 Z " fill="#D1DBEB" transform="translate(353,126)"/>
<path d="M0 0 C3.08687185 1.42998755 6.1688204 2.87029329 9.25 4.3125 C10.12269531 4.71662109 10.99539062 5.12074219 11.89453125 5.53710938 C12.73886719 5.93349609 13.58320313 6.32988281 14.453125 6.73828125 C15.22817383 7.09962158 16.00322266 7.46096191 16.80175781 7.83325195 C19.06085204 9.03229808 20.99762342 10.41445281 23 12 C21.02 12.33 19.04 12.66 17 13 C16.67 12.01 16.34 11.02 16 10 C11.0687015 6.70318085 6.0358349 4.2058112 0 5 C0 3.35 0 1.7 0 0 Z " fill="#D1DCEA" transform="translate(155,381)"/>
<path d="M0 0 C1.65 0 3.3 0 5 0 C5 0.66 5 1.32 5 2 C5.99 2 6.98 2 8 2 C8 2.66 8 3.32 8 4 C8.66 4 9.32 4 10 4 C10 3.34 10 2.68 10 2 C14.875 3.75 14.875 3.75 16 6 C16.99 6.2165625 16.99 6.2165625 18 6.4375 C18.66 6.623125 19.32 6.80875 20 7 C20.33 7.99 20.66 8.98 21 10 C16.98568628 10.4722722 15.03940876 9.57708673 11.82421875 7.22265625 C8.12077357 4.74047565 4.00934716 2.93336108 0 1 C0 0.67 0 0.34 0 0 Z " fill="#CEDCE8" transform="translate(309,99)"/>
<path d="M0 0 C4.95 0 9.9 0 15 0 C11.53642493 1.73178753 8.71822358 2.70473966 5 3.625 C3.453125 4.01558594 3.453125 4.01558594 1.875 4.4140625 C-1 5 -1 5 -5 5 C-5 4.01 -5 3.02 -5 2 C-3.35 2 -1.7 2 0 2 C0 1.34 0 0.68 0 0 Z " fill="#C7D9EB" transform="translate(284,448)"/>
<path d="M0 0 C-4.32369829 3.87641915 -11.95808443 10 -18 10 C-18 8.68 -18 7.36 -18 6 C-16.02 6 -14.04 6 -12 6 C-12 5.34 -12 4.68 -12 4 C-11.01 4 -10.02 4 -9 4 C-9 3.01 -9 2.02 -9 1 C-6.04335481 -0.4783226 -3.25770263 -0.06032783 0 0 Z " fill="#3B6BB2" transform="translate(328,258)"/>
<path d="M0 0 C-3.66741702 2.46961843 -6.56799085 3.48327292 -10.9375 4.0625 C-14.18392751 4.53191054 -16.92299897 4.97112461 -20 6.125 C-24.90970001 7.55699584 -29.92084938 7.14793643 -35 7 C-35 6.67 -35 6.34 -35 6 C-34.18660156 5.91363281 -33.37320312 5.82726562 -32.53515625 5.73828125 C-24.58069994 4.76298796 -17.28736247 3.10252456 -9.68774414 0.58911133 C-3.3624008 -1.43729568 -3.3624008 -1.43729568 0 0 Z " fill="#D7E0ED" transform="translate(294,397)"/>
<path d="M0 0 C1.32 0.33 2.64 0.66 4 1 C2.67726488 4.59758392 1.0805802 7.63737135 -1.0625 10.8125 C-1.58972656 11.60269531 -2.11695313 12.39289063 -2.66015625 13.20703125 C-3.10230469 13.79871094 -3.54445313 14.39039063 -4 15 C-4.33 15 -4.66 15 -5 15 C-5.48951049 8.63636364 -5.48951049 8.63636364 -3.125 5.5625 C-1 4 -1 4 1 4 C0.67 2.68 0.34 1.36 0 0 Z " fill="#CBDAE7" transform="translate(417,354)"/>
<path d="M0 0 C0.33 0.66 0.66 1.32 1 2 C0.01 2 -0.98 2 -2 2 C-2 2.66 -2 3.32 -2 4 C-3.051875 4.433125 -4.10375 4.86625 -5.1875 5.3125 C-7.54729641 6.31565232 -9.59905825 7.35943495 -11.8125 8.6875 C-14 10 -14 10 -16 10 C-16 10.66 -16 11.32 -16 12 C-20.455 13.485 -20.455 13.485 -25 15 C-21.44005237 10.82093105 -16.91336946 8.31440569 -12 6 C-11.34 6 -10.68 6 -10 6 C-9.67 5.01 -9.34 4.02 -9 3 C-6.93359375 2.05078125 -6.93359375 2.05078125 -4.4375 1.3125 C-3.61121094 1.06113281 -2.78492188 0.80976563 -1.93359375 0.55078125 C-0.97646484 0.27814453 -0.97646484 0.27814453 0 0 Z " fill="#B0C9E8" transform="translate(253,302)"/>
<path d="M0 0 C3.42691357 1.23749657 6.35302769 2.4510637 9 5 C9 6.32 9 7.64 9 9 C9.66 9 10.32 9 11 9 C11 11.31 11 13.62 11 16 C9.58622659 13.36095629 8.62759865 10.92879371 8 8 C5.03 7.505 5.03 7.505 2 7 C1.855625 6.401875 1.71125 5.80375 1.5625 5.1875 C1.1127561 3.43849596 0.57107659 1.71322977 0 0 Z " fill="#3565B7" transform="translate(327,230)"/>
<path d="M0 0 C5.72638801 0.5726388 10.90347425 1.67696216 16.375 3.4375 C17.08527344 3.65470703 17.79554688 3.87191406 18.52734375 4.09570312 C23.74378034 5.74378034 23.74378034 5.74378034 26 8 C23.03 8.66 20.06 9.32 17 10 C16.81566406 9.20980469 16.63132812 8.41960938 16.44140625 7.60546875 C15.19673062 4.66152826 15.19673062 4.66152826 11.77734375 3.92578125 C10.51019531 3.72339844 9.24304688 3.52101562 7.9375 3.3125 C5.61555646 2.9282596 3.29917396 2.50285347 1 2 C0.67 1.34 0.34 0.68 0 0 Z " fill="#D2E2EE" transform="translate(287,37)"/>
<path d="M0 0 C3.3 0 6.6 0 10 0 C7.49147051 2.50852949 5.98701988 3.72239004 2.9375 5.25 C2.24527344 5.60578125 1.55304688 5.9615625 0.83984375 6.328125 C0.23269531 6.54984375 -0.37445313 6.7715625 -1 7 C-1.66 6.67 -2.32 6.34 -3 6 C-2.67 4.68 -2.34 3.36 -2 2 C-1.34 2 -0.68 2 0 2 C0 1.34 0 0.68 0 0 Z " fill="#3C6DBB" transform="translate(290,274)"/>
<path d="M0 0 C1.04800781 0.433125 1.04800781 0.433125 2.1171875 0.875 C3.02726563 1.24625 3.93734375 1.6175 4.875 2 C5.77992188 2.37125 6.68484375 2.7425 7.6171875 3.125 C9.88983858 4.11490226 9.88983858 4.11490226 12 4 C12 3.67 12 3.34 12 3 C13.98 3 15.96 3 18 3 C17.34 4.98 16.68 6.96 16 9 C11.75982302 7.68756427 7.93322037 6.05211497 4 4 C3.21625 3.608125 2.4325 3.21625 1.625 2.8125 C1.08875 2.544375 0.5525 2.27625 0 2 C0 1.34 0 0.68 0 0 Z " fill="#BDDCF3" transform="translate(221,167)"/>
<path d="M0 0 C1.98 0 3.96 0 6 0 C6 1.65 6 3.3 6 5 C8.475 5.99 8.475 5.99 11 7 C11 7.66 11 8.32 11 9 C4.54646385 6.94235079 -1.7361263 4.57616518 -8 2 C-4.61682513 1.02408417 -2.4342662 1.14143345 1 2 C0.67 1.34 0.34 0.68 0 0 Z " fill="#CFDDF7" transform="translate(298,90)"/>
<path d="M0 0 C0 3 0 3 -2.484375 5.62890625 C-3.5652337 6.61525637 -4.65416609 7.59281441 -5.75 8.5625 C-6.28882813 9.05685547 -6.82765625 9.55121094 -7.3828125 10.06054688 C-10.08968312 12.5000315 -12.6107674 14.60975653 -16 16 C-15.6875 14.0625 -15.6875 14.0625 -15 12 C-14.01 11.67 -13.02 11.34 -12 11 C-12 10.01 -12 9.02 -12 8 C-10.68 8 -9.36 8 -8 8 C-8 7.34 -8 6.68 -8 6 C-7.34 6 -6.68 6 -6 6 C-5.938125 5.38125 -5.87625 4.7625 -5.8125 4.125 C-5 2 -5 2 -2.4375 0.75 C-1.633125 0.5025 -0.82875 0.255 0 0 Z " fill="#D2DDEC" transform="translate(391,392)"/>
<path d="M0 0 C4.52615993 3.67832017 8.39424999 7.41086363 12 12 C10.02 12 8.04 12 6 12 C5.67 10.68 5.34 9.36 5 8 C3.68 7.67 2.36 7.34 1 7 C0.67 4.69 0.34 2.38 0 0 Z " fill="#CED7E8" transform="translate(384,88)"/>
<path d="M0 0 C4.455 0.99 4.455 0.99 9 2 C9 2.66 9 3.32 9 4 C9.66 4 10.32 4 11 4 C11 4.66 11 5.32 11 6 C11.78375 6.144375 12.5675 6.28875 13.375 6.4375 C16 7 16 7 18 8 C18 8.66 18 9.32 18 10 C18.99 10.33 19.98 10.66 21 11 C20.01 11.495 20.01 11.495 19 12 C16.42578125 10.70703125 16.42578125 10.70703125 13.3125 8.8125 C12.24128906 8.16796875 11.17007812 7.5234375 10.06640625 6.859375 C9.05449219 6.24578125 8.04257812 5.6321875 7 5 C5.58670346 4.18165192 4.17081418 3.36772528 2.75 2.5625 C1.8425 2.046875 0.935 1.53125 0 1 C0 0.67 0 0.34 0 0 Z " fill="#BAD9F2" transform="translate(281,202)"/>
<path d="M0 0 C0.66 0 1.32 0 2 0 C2.66 2.31 3.32 4.62 4 7 C4.99 6.67 5.98 6.34 7 6 C8 9 8 9 7.9375 11.625 C8.01712994 15.92501668 8.96500418 19.84153466 10 24 C7.35330155 21.35330155 6.7611766 18.79001687 5.5625 15.25 C3.99194146 10.62202187 2.18846834 6.36417593 0 2 C0 1.34 0 0.68 0 0 Z " fill="#D4E1EF" transform="translate(384,172)"/>
<path d="M0 0 C0.66 0.33 1.32 0.66 2 1 C0.47005208 2.20442708 -1.05989583 3.40885417 -2.58984375 4.61328125 C-4.27155077 6.05683091 -4.27155077 6.05683091 -5 9 C-5.66 9 -6.32 9 -7 9 C-7 9.66 -7 10.32 -7 11 C-9.97 11.66 -12.94 12.32 -16 13 C-16 12.34 -16 11.68 -16 11 C-13.73518525 9.41522101 -11.47838029 7.94150299 -9.125 6.5 C-4.29888976 3.59980992 -4.29888976 3.59980992 0 0 Z " fill="#D1DCED" transform="translate(340,369)"/>
<path d="M0 0 C2 2 2 2 2.265625 4.171875 C2.23528962 9.17721328 1.97526844 13.30873746 0 18 C-0.99 18 -1.98 18 -3 18 C-4.33981486 18.3062434 -5.67511887 18.63451555 -7 19 C-5.71937515 17.2925002 -4.38232443 15.62626404 -3 14 C-2.34 14 -1.68 14 -1 14 C-0.67 9.38 -0.34 4.76 0 0 Z " fill="#C8E2F3" transform="translate(339,238)"/>
<path d="M0 0 C0.66 0.33 1.32 0.66 2 1 C1.67 1.66 1.34 2.32 1 3 C1.66 3.33 2.32 3.66 3 4 C1 6 -1 8 -3 10 C-3.69748583 11.31747324 -4.36959957 12.64914193 -5 14 C-5.66 13.67 -6.32 13.34 -7 13 C-7 13.66 -7 14.32 -7 15 C-7.66 14.67 -8.32 14.34 -9 14 C-7.87540329 12.22891052 -6.75030797 10.45813764 -5.625 8.6875 C-4.99851562 7.70136719 -4.37203125 6.71523437 -3.7265625 5.69921875 C-2.50348387 3.78712071 -1.2590644 1.8885966 0 0 Z " fill="#CFDEEB" transform="translate(68,117)"/>
<path d="M0 0 C0.66 0 1.32 0 2 0 C1.37123501 3.73765857 -0.3170818 6.19033597 -2.5 9.25 C-3.1290625 10.14203125 -3.758125 11.0340625 -4.40625 11.953125 C-4.9321875 12.62859375 -5.458125 13.3040625 -6 14 C-6.33 14 -6.66 14 -7 14 C-7 12.35 -7 10.7 -7 9 C-6.34 9 -5.68 9 -5 9 C-4.7834375 7.824375 -4.7834375 7.824375 -4.5625 6.625 C-4 4 -4 4 -3 2 C-2.01 2 -1.02 2 0 2 C0 1.34 0 0.68 0 0 Z " fill="#CDDAEA" transform="translate(112,142)"/>
<path d="M0 0 C3.13506611 0.33589994 4.025249 1.02665172 6.25 3.375 C8 6 8 6 8 9 C8.66 9 9.32 9 10 9 C10 9.99 10 10.98 10 12 C8.25 11.875 8.25 11.875 6 11 C3.32645794 7.54012204 1.45305151 4.11697928 0 0 Z " fill="#CCD9EC" transform="translate(64,363)"/>
<path d="M0 0 C3.86848614 1.11756266 6.28922757 2.02873292 9 5 C8.43152344 4.90460938 7.86304688 4.80921875 7.27734375 4.7109375 C1.87031645 3.93463642 -1.86074628 4.14112099 -7 6 C-7.33 4.35 -7.66 2.7 -8 1 C-5.36 1 -2.72 1 0 1 C0 0.67 0 0.34 0 0 Z " fill="#5B8BE1" transform="translate(212,162)"/>
<path d="M0 0 C-0.66 0 -1.32 0 -2 0 C-2.33 0.99 -2.66 1.98 -3 3 C-7.75016635 5.2012966 -11.88081854 5.1765235 -17 5 C-14.65117776 2.65117776 -12.72876333 1.96496976 -9.625 0.8125 C-8.66851562 0.44769531 -7.71203125 0.08289062 -6.7265625 -0.29296875 C-3.94714704 -1.01370542 -2.64891897 -0.98549829 0 0 Z " fill="#D3DEF0" transform="translate(181,41)"/>
<path d="M0 0 C5.83223646 -0.20747086 10.48061915 -0.06976782 16 2 C19.31929078 2.74207709 22.65616934 3.37881407 26 4 C26 4.33 26 4.66 26 5 C16.98741574 4.61336547 8.66891797 3.52446512 0 1 C0 0.67 0 0.34 0 0 Z " fill="#D7E6F2" transform="translate(188,450)"/>
<path d="M0 0 C0.33 0 0.66 0 1 0 C1.66 4.62 2.32 9.24 3 14 C3.66 14 4.32 14 5 14 C5.33 15.98 5.66 17.96 6 20 C3.32509514 19.01920155 2.21349187 18.40919275 0.875 15.84375 C-0.15656175 12.4911743 -0.19573539 9.68890163 -0.125 6.1875 C-0.10695312 5.02605469 -0.08890625 3.86460937 -0.0703125 2.66796875 C-0.04710937 1.78753906 -0.02390625 0.90710938 0 0 Z " fill="#446EB0" transform="translate(178,312)"/>
<path d="M0 0 C0.33 0 0.66 0 1 0 C1.53160457 2.41474617 2.05054766 4.83108107 2.5625 7.25 C2.71396484 7.93191406 2.86542969 8.61382812 3.02148438 9.31640625 C3.75233495 12.81769038 4.32203546 15.60298173 3 19 C1 16 1 16 1 12 C0.34 12 -0.32 12 -1 12 C-2.09898702 8.70303895 -1.87124444 7.59505097 -1.0625 4.3125 C-0.86785156 3.50425781 -0.67320313 2.69601562 -0.47265625 1.86328125 C-0.31667969 1.24839844 -0.16070312 0.63351562 0 0 Z " fill="#D2E2F2" transform="translate(80,266)"/>
<path d="M0 0 C0.66 0.33 1.32 0.66 2 1 C0.42210402 2.15330947 -1.1625482 3.29737927 -2.75 4.4375 C-3.63171875 5.07558594 -4.5134375 5.71367187 -5.421875 6.37109375 C-7.72699125 7.8275081 -9.34349572 8.55931821 -12 9 C-12 9.66 -12 10.32 -12 11 C-12.99 10.67 -13.98 10.34 -15 10 C-12.0761589 6.81980317 -9.16598831 4.74648691 -5.375 2.6875 C-4.41335938 2.15511719 -3.45171875 1.62273437 -2.4609375 1.07421875 C-1.64882813 0.71972656 -0.83671875 0.36523438 0 0 Z " fill="#C1DAF1" transform="translate(297,276)"/>
<path d="M0 0 C0.66 0 1.32 0 2 0 C2.8655047 2.26708325 3.71759315 4.53775079 4.5625 6.8125 C4.80935547 7.45509766 5.05621094 8.09769531 5.31054688 8.75976562 C7.11328125 13.66015625 7.11328125 13.66015625 6 17 C5.896875 16.360625 5.79375 15.72125 5.6875 15.0625 C5.460625 14.381875 5.23375 13.70125 5 13 C4.01 12.67 3.02 12.34 2 12 C2 9.03 2 6.06 2 3 C1.01 3 0.02 3 -1 3 C-0.67 2.01 -0.34 1.02 0 0 Z " fill="#D2E0ED" transform="translate(437,167)"/>
<path d="M0 0 C-5.35233495 3.5682233 -11.63026469 4.32665309 -18 4 C-18 3.01 -18 2.02 -18 1 C-15.93769732 0.8309093 -13.8751477 0.66482867 -11.8125 0.5 C-10.08966797 0.36078125 -10.08966797 0.36078125 -8.33203125 0.21875 C-5.53927574 0.0354038 -2.79680188 -0.04213637 0 0 Z " fill="#CFDBEA" transform="translate(222,83)"/>
<path d="M0 0 C12.66970387 1.92710706 12.66970387 1.92710706 18 4 C18 4.66 18 5.32 18 6 C18.66 6.33 19.32 6.66 20 7 C12.90116066 5.85210257 6.58341381 3.88549626 0 1 C0 0.67 0 0.34 0 0 Z " fill="#D3E0EB" transform="translate(164,442)"/>
<path d="M0 0 C0.99 0 1.98 0 3 0 C3.33 0.99 3.66 1.98 4 3 C3.01 3.495 3.01 3.495 2 4 C2.33 6.31 2.66 8.62 3 11 C3.66 11 4.32 11 5 11 C4.67 11.99 4.34 12.98 4 14 C3.0165504 12.56542672 2.03839079 11.12722594 1.0625 9.6875 C0.51722656 8.88699219 -0.02804688 8.08648437 -0.58984375 7.26171875 C-2 5 -2 5 -3 2 C-2.01 2 -1.02 2 0 2 C0 1.34 0 0.68 0 0 Z " fill="#CFDAED" transform="translate(57,346)"/>
<path d="M0 0 C4.85077588 1.11940982 7.777893 2.1334716 11 6 C7.37 6.33 3.74 6.66 0 7 C0.33 5.35 0.66 3.7 1 2 C0.67 1.34 0.34 0.68 0 0 Z " fill="#2769C2" transform="translate(274,200)"/>
<path d="M0 0 C0.99 0.33 1.98 0.66 3 1 C-11.7 11 -11.7 11 -15 11 C-14.7421875 9.1015625 -14.7421875 9.1015625 -14 7 C-12.2578125 6.0234375 -12.2578125 6.0234375 -10.125 5.375 C-7.25963653 4.47626976 -5.57394921 3.71596614 -3 2 C-2.01 2 -1.02 2 0 2 C0 1.34 0 0.68 0 0 Z " fill="#D6E2F0" transform="translate(361,417)"/>
<path d="M0 0 C0 0.66 0 1.32 0 2 C-0.66 2 -1.32 2 -2 2 C-2 2.66 -2 3.32 -2 4 C-3.65 4 -5.3 4 -7 4 C-7 4.66 -7 5.32 -7 6 C-12.17578125 9.22265625 -12.17578125 9.22265625 -14 10 C-14.99 9.67 -15.98 9.34 -17 9 C-14.87562549 7.68647829 -12.75053408 6.37414287 -10.625 5.0625 C-10.02171875 4.68931641 -9.4184375 4.31613281 -8.796875 3.93164062 C-2.42124155 0 -2.42124155 0 0 0 Z " fill="#BAD2ED" transform="translate(271,292)"/>
<path d="M0 0 C3.21043882 1.38188453 5.04936365 2.92421903 7.25 5.625 C8.03117188 6.57246094 8.03117188 6.57246094 8.828125 7.5390625 C9.40820312 8.26222656 9.40820312 8.26222656 10 9 C8.02 9 6.04 9 4 9 C3.67 8.01 3.34 7.02 3 6 C2.34 6 1.68 6 1 6 C0.67 4.02 0.34 2.04 0 0 Z " fill="#D1D9EB" transform="translate(124,357)"/>
<path d="M0 0 C1.98 0.99 3.96 1.98 6 3 C6 3.66 6 4.32 6 5 C13.55038422 4.34650367 13.55038422 4.34650367 21 3 C18.51565563 5.34290892 17.22268407 5.97982934 13.765625 6.29296875 C12.60546875 6.25816406 11.4453125 6.22335937 10.25 6.1875 C9.07953125 6.16042969 7.9090625 6.13335937 6.703125 6.10546875 C5.81109375 6.07066406 4.9190625 6.03585937 4 6 C4 5.34 4 4.68 4 4 C3.01 4 2.02 4 1 4 C0.67 2.68 0.34 1.36 0 0 Z " fill="#C2DDF4" transform="translate(180,330)"/>
<path d="M0 0 C1.51400391 0.01740234 1.51400391 0.01740234 3.05859375 0.03515625 C4.07050781 0.04417969 5.08242187 0.05320312 6.125 0.0625 C7.29869141 0.07990234 7.29869141 0.07990234 8.49609375 0.09765625 C7.50609375 0.59265625 7.50609375 0.59265625 6.49609375 1.09765625 C6.49609375 1.75765625 6.49609375 2.41765625 6.49609375 3.09765625 C3.49609375 5.09765625 3.49609375 5.09765625 0.49609375 5.09765625 C0.49609375 4.10765625 0.49609375 3.11765625 0.49609375 2.09765625 C-0.82390625 1.76765625 -2.14390625 1.43765625 -3.50390625 1.09765625 C-2.50390625 0.09765625 -2.50390625 0.09765625 0 0 Z " fill="#4170BB" transform="translate(197.50390625,327.90234375)"/>
<path d="M0 0 C3.35433109 0.94933899 6.69246505 1.89748835 10 3 C10 3.66 10 4.32 10 5 C6.7 5.33 3.4 5.66 0 6 C-1 2 -1 2 0 0 Z " fill="#6C98D8" transform="translate(254,187)"/>
<path d="M0 0 C-3.01887244 3.48331435 -5.56909529 4.79157144 -10 6 C-10 4.68 -10 3.36 -10 2 C-6.47120856 -0.92385576 -4.34741868 -1.36633159 0 0 Z " fill="#CDDBEB" transform="translate(164,102)"/>
<path d="M0 0 C-3.877264 2.2310011 -7.26900037 2.39212032 -11.66015625 2.65625 C-14.26658259 2.86870471 -14.26658259 2.86870471 -17 5 C-17.99 5 -18.98 5 -20 5 C-19.67 3.68 -19.34 2.36 -19 1 C-16.77100213 0.83109082 -14.54179338 0.66496313 -12.3125 0.5 C-10.45044922 0.36078125 -10.45044922 0.36078125 -8.55078125 0.21875 C-5.68500671 0.04220063 -2.86900043 -0.04388528 0 0 Z " fill="#C6D5EA" transform="translate(204,87)"/>
<path d="M0 0 C1.32 0 2.64 0 4 0 C6 4 8 8 10 12 C6.79271898 10.93090633 6.00286937 10.18427135 3.875 7.6875 C3.09769531 6.79611328 3.09769531 6.79611328 2.3046875 5.88671875 C0.93492875 3.90589997 0.42587129 2.35267921 0 0 Z " fill="#CFDEEB" transform="translate(74,376)"/>
<path d="M0 0 C0.66 0.33 1.32 0.66 2 1 C-0.31 4.3 -2.62 7.6 -5 11 C-5.66 10.67 -6.32 10.34 -7 10 C-6.67 7.69 -6.34 5.38 -6 3 C-4.35 3 -2.7 3 -1 3 C-0.67 2.01 -0.34 1.02 0 0 Z " fill="#D1DDED" transform="translate(410,369)"/>
<path d="M0 0 C0.66 0.33 1.32 0.66 2 1 C-1.30508475 7.61016949 -1.30508475 7.61016949 -4.5625 9.4375 C-7 10 -7 10 -10 10 C-8.71034824 8.62437146 -7.37310707 7.29233607 -6 6 C-5.34 6 -4.68 6 -4 6 C-3.71125 5.38125 -3.4225 4.7625 -3.125 4.125 C-2 2 -2 2 0 0 Z " fill="#D3DFEC" transform="translate(352,358)"/>
<path d="M0 0 C0.33 0.66 0.66 1.32 1 2 C1.66 2.33 2.32 2.66 3 3 C2.01 4.485 2.01 4.485 1 6 C0.01 6 -0.98 6 -2 6 C-2 6.66 -2 7.32 -2 8 C-3.32 7.67 -4.64 7.34 -6 7 C-4.02 4.69 -2.04 2.38 0 0 Z " fill="#C9D5EA" transform="translate(359,352)"/>
<path d="M0 0 C2.31 0 4.62 0 7 0 C6.67 1.32 6.34 2.64 6 4 C5.34 4 4.68 4 4 4 C4 4.66 4 5.32 4 6 C3.01 6 2.02 6 1 6 C0.67 4.02 0.34 2.04 0 0 Z " fill="#3262E1" transform="translate(326,250)"/>
<path d="M0 0 C7.41258741 0.49417249 7.41258741 0.49417249 10.25 2.9375 C10.8275 3.618125 11.405 4.29875 12 5 C14.13309192 6.23512079 14.13309192 6.23512079 16 7 C15.67 7.66 15.34 8.32 15 9 C12.68374939 7.88222229 10.37215395 6.75625908 8.0625 5.625 C7.40314453 5.30789062 6.74378906 4.99078125 6.06445312 4.6640625 C1.11328125 2.2265625 1.11328125 2.2265625 0 0 Z " fill="#B8D1E9" transform="translate(195,153)"/>
<path d="M0 0 C1.98 0 3.96 0 6 0 C6 0.66 6 1.32 6 2 C2.27034861 4.03435531 0.33094958 5 -4 5 C-4 4.01 -4 3.02 -4 2 C-2.68 2 -1.36 2 0 2 C0 1.34 0 0.68 0 0 Z " fill="#CAD7E6" transform="translate(168,96)"/>
<path d="M0 0 C1.32 0 2.64 0 4 0 C4 0.66 4 1.32 4 2 C3.34 2 2.68 2 2 2 C1.79375 2.556875 1.5875 3.11375 1.375 3.6875 C-0.55000774 6.92501302 -3.03850902 8.68231141 -6 11 C-6 10.01 -6 9.02 -6 8 C-5.34 8 -4.68 8 -4 8 C-4 7.34 -4 6.68 -4 6 C-3.34 6 -2.68 6 -2 6 C-1.855625 5.38125 -1.71125 4.7625 -1.5625 4.125 C-1 2 -1 2 0 0 Z " fill="#CFDCED" transform="translate(399,380)"/>
<path d="M0 0 C7.48291572 6.15034169 7.48291572 6.15034169 10 10 C9.67 10.66 9.34 11.32 9 12 C8.01 11.34 7.02 10.68 6 10 C6 9.01 6 8.02 6 7 C4.68 7.33 3.36 7.66 2 8 C1.10869587 5.3260876 0.52268466 2.76276177 0 0 Z " fill="#D3DFEE" transform="translate(396,100)"/>
<path d="M0 0 C0.66 0.33 1.32 0.66 2 1 C0.90004088 3.84048268 -0.25280657 6.49568941 -2 9 C-5.25 10 -5.25 10 -8 10 C-7.34 8.68 -6.68 7.36 -6 6 C-5.34 6 -4.68 6 -4 6 C-4 5.34 -4 4.68 -4 4 C-2.70766393 2.62689293 -1.37562854 1.28965176 0 0 Z " fill="#D1DDED" transform="translate(92,90)"/>
<path d="M0 0 C0.66 0 1.32 0 2 0 C1.125 4.875 1.125 4.875 0 6 C-1.66617115 6.04063832 -3.33388095 6.042721 -5 6 C-5 4.68 -5 3.36 -5 2 C-3.35 2 -1.7 2 0 2 C0 1.34 0 0.68 0 0 Z " fill="#2667DC" transform="translate(309,224)"/>
<path d="M0 0 C-1.09758507 0.84198307 -2.20335317 1.67330671 -3.3125 2.5 C-3.92738281 2.9640625 -4.54226562 3.428125 -5.17578125 3.90625 C-7 5 -7 5 -10 5 C-10.33 5.99 -10.66 6.98 -11 8 C-11.66 8 -12.32 8 -13 8 C-12.8125 6.125 -12.8125 6.125 -12 4 C-9.5 2.875 -9.5 2.875 -7 2 C-6.67 1.34 -6.34 0.68 -6 0 C-2.49056604 -1.24528302 -2.49056604 -1.24528302 0 0 Z " fill="#D3E0EA" transform="translate(154,109)"/>
<path d="M0 0 C3.99500618 1.3697164 6.80009492 3.25722422 10 6 C3.25 6.125 3.25 6.125 1 5 C0.375 2.4375 0.375 2.4375 0 0 Z " fill="#3A6CB5" transform="translate(314,222)"/>
<path d="M0 0 C1.25955231 3.77865693 0.48087189 5.03411786 -0.9375 8.6875 C-1.31777344 9.68136719 -1.69804687 10.67523438 -2.08984375 11.69921875 C-2.39019531 12.45847656 -2.69054687 13.21773438 -3 14 C-3.33 14 -3.66 14 -4 14 C-4 11.03 -4 8.06 -4 5 C-3.01 5 -2.02 5 -1 5 C-0.67 3.35 -0.34 1.7 0 0 Z " fill="#D3DDF0" transform="translate(439,315)"/>
<path d="M0 0 C1.32 0.33 2.64 0.66 4 1 C-0.29 3.31 -4.58 5.62 -9 8 C-9 6.68 -9 5.36 -9 4 C-7.35 4 -5.7 4 -4 4 C-4 3.34 -4 2.68 -4 2 C-2.68 2 -1.36 2 0 2 C0 1.34 0 0.68 0 0 Z " fill="#4373B6" transform="translate(227,314)"/>
<path d="M0 0 C0.33 0 0.66 0 1 0 C1.39704417 4.49983387 0.05526355 7.05389398 -2 11 C-2.69907414 13.73572585 -2.69907414 13.73572585 -3 16 C-3.66 16 -4.32 16 -5 16 C-4.39363767 10.23955788 -2.24341721 5.27985631 0 0 Z " fill="#D8E3F0" transform="translate(42,164)"/>
<path d="M0 0 C0.99 0.33 1.98 0.66 3 1 C3 1.66 3 2.32 3 3 C4.65 3 6.3 3 8 3 C7.01 4.485 7.01 4.485 6 6 C6.80404463 9.1628485 6.80404463 9.1628485 8 12 C5.49962266 9.82575883 4.56371414 8.26954202 4 5 C3.34 5 2.68 5 2 5 C1.34 3.35 0.68 1.7 0 0 Z " fill="#D3DDEF" transform="translate(370,149)"/>
<path d="M0 0 C3.16115776 1.36983503 3.9927092 1.9890638 6 5 C6.125 7.6875 6.125 7.6875 6 10 C2.65756352 8.10595266 2.02002851 7.05908409 0.75 3.3125 C0.5025 2.219375 0.255 1.12625 0 0 Z " fill="#C8D5E8" transform="translate(358,131)"/>
<path d="M0 0 C1.98 0 3.96 0 6 0 C6 1.32 6 2.64 6 4 C6.99 4.33 7.98 4.66 9 5 C9.6875 7.0625 9.6875 7.0625 10 9 C8.70391053 8.06862408 7.41328368 7.1296434 6.125 6.1875 C5.40570313 5.66542969 4.68640625 5.14335938 3.9453125 4.60546875 C2 3 2 3 0 0 Z " fill="#CFDAED" transform="translate(338,116)"/>
<path d="M0 0 C0 1.98 0 3.96 0 6 C-0.66 6 -1.32 6 -2 6 C-2.33 6.66 -2.66 7.32 -3 8 C-3 7.34 -3 6.68 -3 6 C-3.66 6 -4.32 6 -5 6 C-5 6.66 -5 7.32 -5 8 C-5.66 8 -6.32 8 -7 8 C-5.84316054 5.30070793 -3.38550714 0 0 0 Z " fill="#CFDBEA" transform="translate(84,100)"/>
<path d="M0 0 C4.43090471 1.20842856 6.98112756 2.51668565 10 6 C7.125 6.125 7.125 6.125 4 6 C2.04783565 4.04783565 1.15173355 2.46800047 0 0 Z " fill="#C2D2E1" transform="translate(332,54)"/>
<path d="M0 0 C-6.28571429 4.42857143 -6.28571429 4.42857143 -10 5 C-10 4.01 -10 3.02 -10 2 C-9.34 2 -8.68 2 -8 2 C-8 1.34 -8 0.68 -8 0 C-4.71303767 -0.79953138 -3.28976808 -1.09658936 0 0 Z " fill="#D3E1EE" transform="translate(344,430)"/>
<path d="M0 0 C2.475 0.495 2.475 0.495 5 1 C5.33 1.99 5.66 2.98 6 4 C6.99 4.33 7.98 4.66 9 5 C9 5.66 9 6.32 9 7 C9.66 7 10.32 7 11 7 C10.67 7.99 10.34 8.98 10 10 C8.33037631 8.52417192 6.6643694 7.04425109 5 5.5625 C4.071875 4.73878906 3.14375 3.91507812 2.1875 3.06640625 C1.465625 2.38449219 0.74375 1.70257813 0 1 C0 0.67 0 0.34 0 0 Z " fill="#D3DFEF" transform="translate(88,393)"/>
<path d="M0 0 C0.33 1.32 0.66 2.64 1 4 C-1.31 4 -3.62 4 -6 4 C-6 3.34 -6 2.68 -6 2 C-6.66 1.67 -7.32 1.34 -8 1 C-5.07175348 0.02391783 -3.04386724 -0.08226668 0 0 Z " fill="#1B6BD9" transform="translate(215,166)"/>
<path d="M0 0 C5.28137429 0.51525603 8.57221156 2.25477117 13 5 C13 5.33 13 5.66 13 6 C11.35 6 9.7 6 8 6 C7.67 5.34 7.34 4.68 7 4 C4.6859378 3.26924352 2.35171131 2.59861742 0 2 C0 1.34 0 0.68 0 0 Z " fill="#CEDAEB" transform="translate(346,62)"/>
<path d="M0 0 C3.96 0 7.92 0 12 0 C8.96474514 2.02350324 7.80573798 2.32124018 4.3125 2.625 C3.50425781 2.69976562 2.69601562 2.77453125 1.86328125 2.8515625 C1.24839844 2.90054687 0.63351562 2.94953125 0 3 C0 2.01 0 1.02 0 0 Z " fill="#D4DEEB" transform="translate(279,450)"/>
<path d="M0 0 C0.66 0.33 1.32 0.66 2 1 C-2.455 4.465 -2.455 4.465 -7 8 C-8 4 -8 4 -8 3 C-6.35 3 -4.7 3 -3 3 C-3 2.34 -3 1.68 -3 1 C-2.01 0.67 -1.02 0.34 0 0 Z " fill="#D4DEED" transform="translate(372,409)"/>
<path d="M0 0 C0.66 0.33 1.32 0.66 2 1 C1.24172908 2.17487036 0.46792245 3.33972592 -0.3125 4.5 C-0.74175781 5.1496875 -1.17101562 5.799375 -1.61328125 6.46875 C-2.07089844 6.9740625 -2.52851563 7.479375 -3 8 C-3.99 8 -4.98 8 -6 8 C-4.73058503 4.08597051 -3.48832306 2.20927127 0 0 Z " fill="#C0D3E2" transform="translate(377,332)"/>
<path d="M0 0 C0.99 0.495 0.99 0.495 2 1 C2 1.99 2 2.98 2 4 C2.99 4.33 3.98 4.66 5 5 C5 7.64 5 10.28 5 13 C3.36185552 10.54278328 2.38047801 8.65432189 1.375 5.9375 C1.11460938 5.24527344 0.85421875 4.55304688 0.5859375 3.83984375 C0 2 0 2 0 0 Z " fill="#D5DAE9" transform="translate(39,314)"/>
<path d="M0 0 C2.31 0 4.62 0 7 0 C3.4912812 3.09592835 0.50802601 4.74194623 -4 6 C-4 5.34 -4 4.68 -4 4 C-2.68 3.67 -1.36 3.34 0 3 C0 2.01 0 1.02 0 0 Z " fill="#3D6CB5" transform="translate(269,288)"/>
<path d="M0 0 C-0.33 0.99 -0.66 1.98 -1 3 C-1.66 3 -2.32 3 -3 3 C-3 3.66 -3 4.32 -3 5 C-4.98 5 -6.96 5 -9 5 C-9 4.34 -9 3.68 -9 3 C-2.25 0 -2.25 0 0 0 Z " fill="#2869BB" transform="translate(261,191)"/>
<path d="M0 0 C5.56890517 0.47986031 10.67067568 1.29915181 16 3 C16 3.33 16 3.66 16 4 C12.7 4 9.4 4 6 4 C6 3.34 6 2.68 6 2 C3.69 2 1.38 2 -1 2 C-0.67 1.34 -0.34 0.68 0 0 Z " fill="#C4D3E2" transform="translate(278,36)"/>
<path d="M0 0 C1.32 0 2.64 0 4 0 C4 0.99 4 1.98 4 3 C-0.95 3 -5.9 3 -11 3 C-11 2.67 -11 2.34 -11 2 C-10.28972656 1.93941406 -9.57945312 1.87882812 -8.84765625 1.81640625 C-7.46900391 1.69072266 -7.46900391 1.69072266 -6.0625 1.5625 C-5.14597656 1.48128906 -4.22945313 1.40007812 -3.28515625 1.31640625 C-1.03840268 1.23955024 -1.03840268 1.23955024 0 0 Z " fill="#C3CFE2" transform="translate(275,450)"/>
<path d="M0 0 C3.93673644 1.31224548 6.22719294 2.91910327 9 6 C6.69 6 4.38 6 2 6 C2 4.68 2 3.36 2 2 C1.34 2 0.68 2 0 2 C0 1.34 0 0.68 0 0 Z " fill="#D3DDEE" transform="translate(139,370)"/>
<path d="M0 0 C-3.96 1.98 -7.92 3.96 -12 6 C-12 5.34 -12 4.68 -12 4 C-11.34 4 -10.68 4 -10 4 C-10 3.34 -10 2.68 -10 2 C-9.01 2 -8.02 2 -7 2 C-7 1.34 -7 0.68 -7 0 C-4 -1 -4 -1 0 0 Z " fill="#416DB7" transform="translate(243,308)"/>
<path d="M0 0 C0.99 0.66 1.98 1.32 3 2 C-1.42778844 4.74522883 -4.71862571 6.48474397 -10 7 C-6.375 4 -6.375 4 -3 4 C-3 3.34 -3 2.68 -3 2 C-2.01 2 -1.02 2 0 2 C0 1.34 0 0.68 0 0 Z " fill="#4D73B1" transform="translate(254,298)"/>
<path d="M0 0 C3.99500618 1.3697164 6.80009492 3.25722422 10 6 C8.02 6 6.04 6 4 6 C4 5.34 4 4.68 4 4 C3.01 4 2.02 4 1 4 C0.67 2.68 0.34 1.36 0 0 Z " fill="#4E77B7" transform="translate(304,216)"/>
<path d="M0 0 C0.66 0 1.32 0 2 0 C1.88637738 1.4800841 1.75877092 2.95910074 1.625 4.4375 C1.52058594 5.67306641 1.52058594 5.67306641 1.4140625 6.93359375 C1.27742188 7.61550781 1.14078125 8.29742187 1 9 C0.01 9.495 0.01 9.495 -1 10 C-1.02689216 8.52093108 -1.04634621 7.04172517 -1.0625 5.5625 C-1.07410156 4.73878906 -1.08570312 3.91507813 -1.09765625 3.06640625 C-1 1 -1 1 0 0 Z " fill="#CDDAE7" transform="translate(85,190)"/>
<path d="M0 0 C1.65 0 3.3 0 5 0 C5 1.32 5 2.64 5 4 C2.69 4 0.38 4 -2 4 C-1.34 2.68 -0.68 1.36 0 0 Z " fill="#2169DF" transform="translate(200,324)"/>
<path d="M0 0 C-2.60542016 1.73694677 -4.58342775 2.69100448 -7.5 3.6875 C-8.2734375 3.95949219 -9.046875 4.23148437 -9.84375 4.51171875 C-12 5 -12 5 -15 4 C-9.77228537 0.95842058 -6.07328688 -0.50610724 0 0 Z " fill="#D9E6F2" transform="translate(197,89)"/>
<path d="M0 0 C1.6490302 0.61651583 3.29415841 1.24347742 4.9375 1.875 C6.31228516 2.39707031 6.31228516 2.39707031 7.71484375 2.9296875 C10 4 10 4 11 6 C7.7 5.34 4.4 4.68 1 4 C0.67 2.68 0.34 1.36 0 0 Z " fill="#D6E1EF" transform="translate(327,50)"/>
<path d="M0 0 C2.97 0.495 2.97 0.495 6 1 C5.01 2.485 5.01 2.485 4 4 C3.34 4 2.68 4 2 4 C2 4.66 2 5.32 2 6 C1.01 6.33 0.02 6.66 -1 7 C-1 6.34 -1 5.68 -1 5 C-0.34 5 0.32 5 1 5 C0.67 3.35 0.34 1.7 0 0 Z " fill="#CFDBEA" transform="translate(135,116)"/>
<path d="M0 0 C-1.23944276 0.86941494 -2.49207059 1.72005457 -3.75 2.5625 C-4.44609375 3.03816406 -5.1421875 3.51382812 -5.859375 4.00390625 C-8 5 -8 5 -10.265625 4.65234375 C-10.83796875 4.43707031 -11.4103125 4.22179687 -12 4 C-10.56988027 3.13353333 -9.13059381 2.28218171 -7.6875 1.4375 C-6.48673828 0.72400391 -6.48673828 0.72400391 -5.26171875 -0.00390625 C-3 -1 -3 -1 0 0 Z " fill="#D7E0F4" transform="translate(324,383)"/>
<path d="M0 0 C0.66 0.33 1.32 0.66 2 1 C0.75 3.9375 0.75 3.9375 -1 7 C-3.1875 7.875 -3.1875 7.875 -5 8 C-3.62845496 5.04590299 -2.01136276 2.55991624 0 0 Z " fill="#D1D9EB" transform="translate(365,344)"/>
<path d="M0 0 C3.44216672 2.6598561 3.99504674 5.90288286 5 10 C4.34 10 3.68 10 3 10 C-0.00617269 6.99382731 0.40414684 4.17618402 0 0 Z " fill="#D2DDEA" transform="translate(95,315)"/>
<path d="M0 0 C-4 2 -8 4 -12 6 C-10.9200311 2.86809018 -9.99049526 1.99400788 -7.125 0.1875 C-3.8542803 -1.05537349 -3.15139514 -1.00271664 0 0 Z " fill="#C1DEF1" transform="translate(230,318)"/>
<path d="M0 0 C1.98 0 3.96 0 6 0 C5.34 1.98 4.68 3.96 4 6 C1 4 1 4 0.3125 1.875 C0.209375 1.25625 0.10625 0.6375 0 0 Z " fill="#F3F9EA" transform="translate(233,170)"/>
<path d="M0 0 C1.32 0 2.64 0 4 0 C3.67 1.65 3.34 3.3 3 5 C2.01 5.33 1.02 5.66 0 6 C0 4.02 0 2.04 0 0 Z " fill="#BAD1FA" transform="translate(94,160)"/>
<path d="M0 0 C0 3.41099168 -0.49145406 6.63088314 -1 10 C-1.99 10 -2.98 10 -4 10 C-3.52449439 8.51965236 -3.04448784 7.04074979 -2.5625 5.5625 C-2.29566406 4.73878906 -2.02882812 3.91507813 -1.75390625 3.06640625 C-1 1 -1 1 0 0 Z " fill="#C1D0E0" transform="translate(50,150)"/>
<path d="M0 0 C2.475 0.495 2.475 0.495 5 1 C5.33 2.32 5.66 3.64 6 5 C4.35 5 2.7 5 1 5 C0.67 3.35 0.34 1.7 0 0 Z " fill="#2867B9" transform="translate(183,328)"/>
<path d="M0 0 C1 3 1 3 0.328125 4.7890625 C-0.02765625 5.39492188 -0.3834375 6.00078125 -0.75 6.625 C-1.09546875 7.23601562 -1.4409375 7.84703125 -1.796875 8.4765625 C-3 10 -3 10 -6 11 C-4.54955729 6.89041233 -2.48889248 3.56741255 0 0 Z " fill="#D6E3EE" transform="translate(379,324)"/>
<path d="M0 0 C0.33 0.66 0.66 1.32 1 2 C0.34 2 -0.32 2 -1 2 C-1.33 2.99 -1.66 3.98 -2 5 C-2.66 5 -3.32 5 -4 5 C-4.33 5.99 -4.66 6.98 -5 8 C-6 5 -6 5 -5 2 C-2.4375 0.8125 -2.4375 0.8125 0 0 Z " fill="#D3DAEA" transform="translate(123,132)"/>
<path d="M0 0 C0.33 0.66 0.66 1.32 1 2 C0.00390625 3.9453125 0.00390625 3.9453125 -1.4375 6.125 C-1.91058594 6.84945313 -2.38367188 7.57390625 -2.87109375 8.3203125 C-3.24363281 8.87460937 -3.61617188 9.42890625 -4 10 C-4.33 9.01 -4.66 8.02 -5 7 C-4.34 7 -3.68 7 -3 7 C-2.87625 6.21625 -2.7525 5.4325 -2.625 4.625 C-2 2 -2 2 0 0 Z " fill="#D8E6F2" transform="translate(429,340)"/>
<path d="M0 0 C1.32 0 2.64 0 4 0 C3.67 1.32 3.34 2.64 3 4 C1.02 4 -0.96 4 -3 4 C-2.67 3.34 -2.34 2.68 -2 2 C-1.34 2 -0.68 2 0 2 C0 1.34 0 0.68 0 0 Z " fill="#FBFEE8" transform="translate(204,332)"/>
<path d="M0 0 C3.3 0.99 6.6 1.98 10 3 C10 3.66 10 4.32 10 5 C6.7 4.34 3.4 3.68 0 3 C0 2.01 0 1.02 0 0 Z " fill="#849ECC" transform="translate(271,197)"/>
<path d="M0 0 C0.99 0 1.98 0 3 0 C3.66 1.65 4.32 3.3 5 5 C4.34 5.66 3.68 6.32 3 7 C0 3.375 0 3.375 0 0 Z " fill="#CAD5E6" transform="translate(366,142)"/>
<path d="M0 0 C0.66 0.33 1.32 0.66 2 1 C1.34 2.65 0.68 4.3 0 6 C-2.97 5.505 -2.97 5.505 -6 5 C-5.195625 4.360625 -4.39125 3.72125 -3.5625 3.0625 C-1.7249496 1.59396498 -1.7249496 1.59396498 0 0 Z " fill="#D3DBEE" transform="translate(132,60)"/>
<path d="M0 0 C-0.639375 0.28875 -1.27875 0.5775 -1.9375 0.875 C-4.15206079 1.82823451 -4.15206079 1.82823451 -5 4 C-6.65 4 -8.3 4 -10 4 C-6.87839899 0.56623888 -4.64008112 -1.54669371 0 0 Z " fill="#C3DEF3" transform="translate(309,272)"/>
<path d="M0 0 C1.65 0 3.3 0 5 0 C5 1.32 5 2.64 5 4 C3.68 4 2.36 4 1 4 C0.67 2.68 0.34 1.36 0 0 Z " fill="#1570CC" transform="translate(219,172)"/>
<path d="M0 0 C2.79872437 2.52788007 4.45773019 4.20411134 5 8 C3.68 7.67 2.36 7.34 1 7 C0.67 4.69 0.34 2.38 0 0 Z " fill="#D1DFF2" transform="translate(414,122)"/>
<path d="M0 0 C1.875 0.3125 1.875 0.3125 4 1 C4.66 1.99 5.32 2.98 6 4 C4.02 4 2.04 4 0 4 C0 2.68 0 1.36 0 0 Z " fill="#CAD3E6" transform="translate(128,362)"/>
<path d="M0 0 C3.24208567 0.35049575 4.61527704 0.56221181 6.8125 3.0625 C7.204375 3.701875 7.59625 4.34125 8 5 C7.67 5.66 7.34 6.32 7 7 C6.67 6.01 6.34 5.02 6 4 C4.34795544 3.29788106 2.68076231 2.63028587 1 2 C0.67 1.34 0.34 0.68 0 0 Z " fill="#BCD5F0" transform="translate(331,231)"/>
<path d="M0 0 C2.35171131 0.59861742 4.6859378 1.26924352 7 2 C7.33 2.66 7.66 3.32 8 4 C6.02 4 4.04 4 2 4 C1.34 2.68 0.68 1.36 0 0 Z " fill="#3E67AB" transform="translate(274,200)"/>
<path d="M0 0 C6.75 0.75 6.75 0.75 9 3 C6.69 3 4.38 3 2 3 C2 2.34 2 1.68 2 1 C1.34 0.67 0.68 0.34 0 0 Z " fill="#C1D0DF" transform="translate(308,45)"/>
<path d="M0 0 C0 0.66 0 1.32 0 2 C-1.98 2 -3.96 2 -6 2 C-6 1.34 -6 0.68 -6 0 C-3.50907189 -1.24546405 -2.58919267 -0.7767578 0 0 Z " fill="#FDF8E5" transform="translate(227,164)"/>
<path d="" fill="#F8F9E7" transform="translate(0,0)"/>
<path d="M0 0 C2 1 2 1 2 1 Z " fill="#F6F2E6" transform="translate(284,201)"/>
<path d="M0 0 C2 1 2 1 2 1 Z " fill="#F0F4E9" transform="translate(220,162)"/>
<path d="M0 0 C2 1 2 1 2 1 Z " fill="#E7F9FD" transform="translate(222,161)"/>
<path d="" fill="#FAF6EA" transform="translate(0,0)"/>
<path d="" fill="#E4ECEF" transform="translate(0,0)"/>
<path d="" fill="#F5F7EA" transform="translate(0,0)"/>
<path d="" fill="#EEEAE9" transform="translate(0,0)"/>
<path d="" fill="#F5F5E9" transform="translate(0,0)"/>
<path d="" fill="#F6ECEA" transform="translate(0,0)"/>
<path d="" fill="#FFFEEC" transform="translate(0,0)"/>
<path d="" fill="#EAE8ED" transform="translate(0,0)"/>
<path d="" fill="#EFE5E6" transform="translate(0,0)"/>
<path d="" fill="#E7F6FB" transform="translate(0,0)"/>
</svg>
